<mxfile host="app.diagrams.net" agent="Mozilla/5.0 (Windows NT 10.0; Win64; x64) AppleWebKit/537.36 (KHTML, like Gecko) Chrome/138.0.0.0 Safari/537.36 Edg/138.0.0.0" border="50" scale="3" compressed="false" locked="false" version="28.0.7">
  <diagram name="Blank" id="YmL12bMKpDGza6XwsDPr">
    <mxGraphModel dx="1787" dy="1832" grid="0" gridSize="10" guides="1" tooltips="1" connect="1" arrows="1" fold="1" page="1" pageScale="1" pageWidth="827" pageHeight="1169" background="none" math="1" shadow="0">
      <root>
        <mxCell id="X5NqExCQtvZxIxQ7pmgY-0" />
        <mxCell id="1" parent="X5NqExCQtvZxIxQ7pmgY-0" />
        <mxCell id="l-kLitbtD4qd4CKumxQw-15" value="Quản lý đội ngũ bưu tá" style="swimlane;fontStyle=2;childLayout=stackLayout;horizontal=1;startSize=20;horizontalStack=1;resizeParent=1;resizeParentMax=0;resizeLast=0;collapsible=0;marginBottom=0;swimlaneFillColor=none;fontFamily=Helvetica;fontSize=14;points=[];verticalAlign=middle;stackBorder=10;stackSpacing=-10;resizable=1;swimlaneLine=1;flipH=0;flipV=0;glass=0;" vertex="1" parent="1">
          <mxGeometry x="-802" y="78" width="734" height="123" as="geometry" />
        </mxCell>
        <mxCell id="l-kLitbtD4qd4CKumxQw-16" value="&lt;div style=&quot;padding-top: 0px; padding-right: 2px; padding-left: 2px;&quot;&gt;&lt;span style=&quot;background-color: transparent; color: light-dark(rgb(0, 0, 0), rgb(255, 255, 255));&quot;&gt;Lập kế hoạch quản lý bưu tá&lt;/span&gt;&lt;/div&gt;" style="shape=step;perimeter=stepPerimeter;fontFamily=Helvetica;fontSize=14;fixedSize=1;size=17;fontStyle=1;strokeWidth=2;spacingTop=0;points=[];fillColor=#FFFFFF;strokeColor=#000000;html=1;whiteSpace=wrap;spacing=10;align=center;" vertex="1" parent="l-kLitbtD4qd4CKumxQw-15">
          <mxGeometry x="10" y="30" width="98" height="83" as="geometry" />
        </mxCell>
        <mxCell id="l-kLitbtD4qd4CKumxQw-26" value="&lt;div style=&quot;padding-top: 0px; padding-right: 2px; padding-left: 2px;&quot;&gt;&lt;strong style=&quot;color: rgb(59, 59, 59); font-family: -apple-system, BlinkMacSystemFont, &amp;quot;Segoe WPC&amp;quot;, &amp;quot;Segoe UI&amp;quot;, system-ui, Ubuntu, &amp;quot;Droid Sans&amp;quot;, sans-serif; text-align: left;&quot;&gt;Tuyển dụng và cung cấp thông tin&lt;/strong&gt;&lt;/div&gt;" style="shape=step;perimeter=stepPerimeter;fontFamily=Helvetica;fontSize=14;fixedSize=1;size=17;fontStyle=1;strokeWidth=2;spacingTop=0;points=[];fillColor=#f5f5f5;strokeColor=#666666;html=1;whiteSpace=wrap;spacing=10;align=center;fontColor=#333333;" vertex="1" parent="l-kLitbtD4qd4CKumxQw-15">
          <mxGeometry x="98" y="30" width="98" height="83" as="geometry" />
        </mxCell>
        <mxCell id="l-kLitbtD4qd4CKumxQw-27" value="&lt;div style=&quot;padding-top: 0px; padding-right: 2px; padding-left: 2px;&quot;&gt;&lt;strong style=&quot;color: rgb(59, 59, 59); font-family: -apple-system, BlinkMacSystemFont, &amp;quot;Segoe WPC&amp;quot;, &amp;quot;Segoe UI&amp;quot;, system-ui, Ubuntu, &amp;quot;Droid Sans&amp;quot;, sans-serif; text-align: left;&quot;&gt;&amp;nbsp;Phân&lt;/strong&gt;&lt;/div&gt;&lt;div style=&quot;padding-top: 0px; padding-right: 2px; padding-left: 2px;&quot;&gt;&lt;strong style=&quot;color: rgb(59, 59, 59); font-family: -apple-system, BlinkMacSystemFont, &amp;quot;Segoe WPC&amp;quot;, &amp;quot;Segoe UI&amp;quot;, system-ui, Ubuntu, &amp;quot;Droid Sans&amp;quot;, sans-serif; text-align: left;&quot;&gt;&amp;nbsp;công bưu tá&lt;/strong&gt;&lt;/div&gt;" style="shape=step;perimeter=stepPerimeter;fontFamily=Helvetica;fontSize=14;fixedSize=1;size=17;fontStyle=1;strokeWidth=2;spacingTop=0;points=[];fillColor=#dae8fc;strokeColor=#6c8ebf;html=1;whiteSpace=wrap;spacing=10;align=center;" vertex="1" parent="l-kLitbtD4qd4CKumxQw-15">
          <mxGeometry x="186" y="30" width="98" height="83" as="geometry" />
        </mxCell>
        <mxCell id="l-kLitbtD4qd4CKumxQw-28" value="&lt;div style=&quot;padding-top: 0px; padding-right: 2px; padding-left: 2px;&quot;&gt;&lt;strong style=&quot;color: rgb(59, 59, 59); font-family: -apple-system, BlinkMacSystemFont, &amp;quot;Segoe WPC&amp;quot;, &amp;quot;Segoe UI&amp;quot;, system-ui, Ubuntu, &amp;quot;Droid Sans&amp;quot;, sans-serif; text-align: left;&quot;&gt;&amp;nbsp;Đào tạo và hướng dẫn&lt;/strong&gt;&lt;/div&gt;" style="shape=step;perimeter=stepPerimeter;fontFamily=Helvetica;fontSize=14;fixedSize=1;size=17;fontStyle=1;strokeWidth=2;spacingTop=0;points=[];fillColor=#d5e8d4;strokeColor=#82b366;html=1;whiteSpace=wrap;spacing=10;align=center;" vertex="1" parent="l-kLitbtD4qd4CKumxQw-15">
          <mxGeometry x="274" y="30" width="98" height="83" as="geometry" />
        </mxCell>
        <mxCell id="l-kLitbtD4qd4CKumxQw-29" value="&lt;div style=&quot;padding-top: 0px; padding-right: 2px; padding-left: 2px;&quot;&gt;&lt;strong style=&quot;color: rgb(59, 59, 59); font-family: -apple-system, BlinkMacSystemFont, &amp;quot;Segoe WPC&amp;quot;, &amp;quot;Segoe UI&amp;quot;, system-ui, Ubuntu, &amp;quot;Droid Sans&amp;quot;, sans-serif; text-align: left;&quot;&gt;Thực hiện giao hàng&lt;/strong&gt;&lt;/div&gt;" style="shape=step;perimeter=stepPerimeter;fontFamily=Helvetica;fontSize=14;fixedSize=1;size=17;fontStyle=1;strokeWidth=2;spacingTop=0;points=[];fillColor=#ffe6cc;strokeColor=#d79b00;html=1;whiteSpace=wrap;spacing=10;align=center;" vertex="1" parent="l-kLitbtD4qd4CKumxQw-15">
          <mxGeometry x="362" y="30" width="98" height="83" as="geometry" />
        </mxCell>
        <mxCell id="l-kLitbtD4qd4CKumxQw-30" value="&lt;div style=&quot;padding-top: 0px; padding-right: 2px; padding-left: 2px;&quot;&gt;&lt;strong style=&quot;color: rgb(59, 59, 59); font-family: -apple-system, BlinkMacSystemFont, &amp;quot;Segoe WPC&amp;quot;, &amp;quot;Segoe UI&amp;quot;, system-ui, Ubuntu, &amp;quot;Droid Sans&amp;quot;, sans-serif; text-align: left;&quot;&gt;Đánh giá hiệu suất bưu tá&lt;/strong&gt;&lt;/div&gt;" style="shape=step;perimeter=stepPerimeter;fontFamily=Helvetica;fontSize=14;fixedSize=1;size=17;fontStyle=1;strokeWidth=2;spacingTop=0;points=[];fillColor=#fff2cc;strokeColor=#d6b656;html=1;whiteSpace=wrap;spacing=10;align=center;" vertex="1" parent="l-kLitbtD4qd4CKumxQw-15">
          <mxGeometry x="450" y="30" width="98" height="83" as="geometry" />
        </mxCell>
        <mxCell id="l-kLitbtD4qd4CKumxQw-31" value="&lt;div style=&quot;padding-top: 0px; padding-right: 2px; padding-left: 2px;&quot;&gt;&lt;strong style=&quot;color: rgb(59, 59, 59); font-family: -apple-system, BlinkMacSystemFont, &amp;quot;Segoe WPC&amp;quot;, &amp;quot;Segoe UI&amp;quot;, system-ui, Ubuntu, &amp;quot;Droid Sans&amp;quot;, sans-serif; text-align: left;&quot;&gt;Tính lương và thanh toán&lt;/strong&gt;&lt;/div&gt;" style="shape=step;perimeter=stepPerimeter;fontFamily=Helvetica;fontSize=14;fixedSize=1;size=17;fontStyle=1;strokeWidth=2;spacingTop=0;points=[];fillColor=#f8cecc;strokeColor=#b85450;html=1;whiteSpace=wrap;spacing=10;align=center;" vertex="1" parent="l-kLitbtD4qd4CKumxQw-15">
          <mxGeometry x="538" y="30" width="98" height="83" as="geometry" />
        </mxCell>
        <mxCell id="l-kLitbtD4qd4CKumxQw-32" value="&lt;div style=&quot;padding-top: 0px; padding-right: 2px; padding-left: 2px;&quot;&gt;&lt;strong style=&quot;color: rgb(59, 59, 59); font-family: -apple-system, BlinkMacSystemFont, &amp;quot;Segoe WPC&amp;quot;, &amp;quot;Segoe UI&amp;quot;, system-ui, Ubuntu, &amp;quot;Droid Sans&amp;quot;, sans-serif; text-align: left;&quot;&gt;&amp;nbsp;Báo cáo và cải tiến&lt;/strong&gt;&lt;/div&gt;" style="shape=step;perimeter=stepPerimeter;fontFamily=Helvetica;fontSize=14;fixedSize=1;size=17;fontStyle=1;strokeWidth=2;spacingTop=0;points=[];fillColor=#e1d5e7;strokeColor=#9673a6;html=1;whiteSpace=wrap;spacing=10;align=center;" vertex="1" parent="l-kLitbtD4qd4CKumxQw-15">
          <mxGeometry x="626" y="30" width="98" height="83" as="geometry" />
        </mxCell>
        <mxCell id="l-kLitbtD4qd4CKumxQw-35" value="Mẫu" style="swimlane;fontStyle=2;childLayout=stackLayout;horizontal=1;startSize=20;horizontalStack=1;resizeParent=1;resizeParentMax=0;resizeLast=0;collapsible=0;marginBottom=0;swimlaneFillColor=none;fontFamily=Helvetica;fontSize=14;points=[];verticalAlign=middle;stackBorder=10;stackSpacing=-10;resizable=1;swimlaneLine=1;flipH=0;flipV=0;glass=0;" vertex="1" parent="1">
          <mxGeometry x="-708" y="-378" width="822" height="123" as="geometry" />
        </mxCell>
        <mxCell id="l-kLitbtD4qd4CKumxQw-36" value="&lt;div style=&quot;padding-top: 0px; padding-right: 2px; padding-left: 2px;&quot;&gt;&lt;span style=&quot;background-color: transparent; color: light-dark(rgb(0, 0, 0), rgb(255, 255, 255));&quot;&gt;Lập kế hoạch quản lý bưu tá&lt;/span&gt;&lt;/div&gt;" style="shape=step;perimeter=stepPerimeter;fontFamily=Helvetica;fontSize=14;fixedSize=1;size=17;fontStyle=1;strokeWidth=2;spacingTop=0;points=[];fillColor=#FFFFFF;strokeColor=#000000;html=1;whiteSpace=wrap;spacing=10;align=center;" vertex="1" parent="l-kLitbtD4qd4CKumxQw-35">
          <mxGeometry x="10" y="30" width="98" height="83" as="geometry" />
        </mxCell>
        <mxCell id="l-kLitbtD4qd4CKumxQw-37" value="&lt;div style=&quot;padding-top: 0px; padding-right: 2px; padding-left: 2px;&quot;&gt;&lt;strong style=&quot;color: rgb(59, 59, 59); font-family: -apple-system, BlinkMacSystemFont, &amp;quot;Segoe WPC&amp;quot;, &amp;quot;Segoe UI&amp;quot;, system-ui, Ubuntu, &amp;quot;Droid Sans&amp;quot;, sans-serif; text-align: left;&quot;&gt;Tuyển dụng và cung cấp thông tin&lt;/strong&gt;&lt;/div&gt;" style="shape=step;perimeter=stepPerimeter;fontFamily=Helvetica;fontSize=14;fixedSize=1;size=17;fontStyle=1;strokeWidth=2;spacingTop=0;points=[];fillColor=#f5f5f5;strokeColor=#666666;html=1;whiteSpace=wrap;spacing=10;align=center;fontColor=#333333;" vertex="1" parent="l-kLitbtD4qd4CKumxQw-35">
          <mxGeometry x="98" y="30" width="98" height="83" as="geometry" />
        </mxCell>
        <mxCell id="l-kLitbtD4qd4CKumxQw-38" value="&lt;div style=&quot;padding-top: 0px; padding-right: 2px; padding-left: 2px;&quot;&gt;&lt;strong style=&quot;color: rgb(59, 59, 59); font-family: -apple-system, BlinkMacSystemFont, &amp;quot;Segoe WPC&amp;quot;, &amp;quot;Segoe UI&amp;quot;, system-ui, Ubuntu, &amp;quot;Droid Sans&amp;quot;, sans-serif; text-align: left;&quot;&gt;Phân công bưu tá&lt;/strong&gt;&lt;/div&gt;" style="shape=step;perimeter=stepPerimeter;fontFamily=Helvetica;fontSize=14;fixedSize=1;size=17;fontStyle=1;strokeWidth=2;spacingTop=0;points=[];fillColor=#dae8fc;strokeColor=#6c8ebf;html=1;whiteSpace=wrap;spacing=10;align=center;" vertex="1" parent="l-kLitbtD4qd4CKumxQw-35">
          <mxGeometry x="186" y="30" width="98" height="83" as="geometry" />
        </mxCell>
        <mxCell id="l-kLitbtD4qd4CKumxQw-39" value="&lt;div style=&quot;padding-top: 0px; padding-right: 2px; padding-left: 2px;&quot;&gt;&lt;strong style=&quot;color: rgb(59, 59, 59); font-family: -apple-system, BlinkMacSystemFont, &amp;quot;Segoe WPC&amp;quot;, &amp;quot;Segoe UI&amp;quot;, system-ui, Ubuntu, &amp;quot;Droid Sans&amp;quot;, sans-serif; text-align: left;&quot;&gt;Đào tạo&lt;/strong&gt;&lt;/div&gt;&lt;div style=&quot;padding-top: 0px; padding-right: 2px; padding-left: 2px;&quot;&gt;&lt;strong style=&quot;color: rgb(59, 59, 59); font-family: -apple-system, BlinkMacSystemFont, &amp;quot;Segoe WPC&amp;quot;, &amp;quot;Segoe UI&amp;quot;, system-ui, Ubuntu, &amp;quot;Droid Sans&amp;quot;, sans-serif; text-align: left;&quot;&gt;&amp;nbsp;và hướng dẫn&lt;/strong&gt;&lt;/div&gt;" style="shape=step;perimeter=stepPerimeter;fontFamily=Helvetica;fontSize=14;fixedSize=1;size=17;fontStyle=1;strokeWidth=2;spacingTop=0;points=[];fillColor=#d5e8d4;strokeColor=#82b366;html=1;whiteSpace=wrap;spacing=10;align=center;" vertex="1" parent="l-kLitbtD4qd4CKumxQw-35">
          <mxGeometry x="274" y="30" width="98" height="83" as="geometry" />
        </mxCell>
        <mxCell id="l-kLitbtD4qd4CKumxQw-40" value="&lt;div style=&quot;padding-top: 0px; padding-right: 2px; padding-left: 2px;&quot;&gt;&lt;strong style=&quot;color: rgb(59, 59, 59); font-family: -apple-system, BlinkMacSystemFont, &amp;quot;Segoe WPC&amp;quot;, &amp;quot;Segoe UI&amp;quot;, system-ui, Ubuntu, &amp;quot;Droid Sans&amp;quot;, sans-serif; text-align: left;&quot;&gt;Thực hiện giao hàng&lt;/strong&gt;&lt;/div&gt;" style="shape=step;perimeter=stepPerimeter;fontFamily=Helvetica;fontSize=14;fixedSize=1;size=17;fontStyle=1;strokeWidth=2;spacingTop=0;points=[];fillColor=#ffe6cc;strokeColor=#d79b00;html=1;whiteSpace=wrap;spacing=10;align=center;" vertex="1" parent="l-kLitbtD4qd4CKumxQw-35">
          <mxGeometry x="362" y="30" width="98" height="83" as="geometry" />
        </mxCell>
        <mxCell id="l-kLitbtD4qd4CKumxQw-41" value="&lt;div style=&quot;padding-top: 0px; padding-right: 2px; padding-left: 2px;&quot;&gt;&lt;strong style=&quot;color: rgb(59, 59, 59); font-family: -apple-system, BlinkMacSystemFont, &amp;quot;Segoe WPC&amp;quot;, &amp;quot;Segoe UI&amp;quot;, system-ui, Ubuntu, &amp;quot;Droid Sans&amp;quot;, sans-serif; text-align: left;&quot;&gt;Đánh giá hiệu suất bưu tá&lt;/strong&gt;&lt;/div&gt;" style="shape=step;perimeter=stepPerimeter;fontFamily=Helvetica;fontSize=14;fixedSize=1;size=17;fontStyle=1;strokeWidth=2;spacingTop=0;points=[];fillColor=#fff2cc;strokeColor=#d6b656;html=1;whiteSpace=wrap;spacing=10;align=center;" vertex="1" parent="l-kLitbtD4qd4CKumxQw-35">
          <mxGeometry x="450" y="30" width="98" height="83" as="geometry" />
        </mxCell>
        <mxCell id="l-kLitbtD4qd4CKumxQw-42" value="&lt;div style=&quot;padding-top: 0px; padding-right: 2px; padding-left: 2px;&quot;&gt;&lt;strong style=&quot;color: rgb(59, 59, 59); font-family: -apple-system, BlinkMacSystemFont, &amp;quot;Segoe WPC&amp;quot;, &amp;quot;Segoe UI&amp;quot;, system-ui, Ubuntu, &amp;quot;Droid Sans&amp;quot;, sans-serif; text-align: left;&quot;&gt;Tính lương và&lt;/strong&gt;&lt;/div&gt;&lt;div style=&quot;padding-top: 0px; padding-right: 2px; padding-left: 2px;&quot;&gt;&lt;strong style=&quot;color: rgb(59, 59, 59); font-family: -apple-system, BlinkMacSystemFont, &amp;quot;Segoe WPC&amp;quot;, &amp;quot;Segoe UI&amp;quot;, system-ui, Ubuntu, &amp;quot;Droid Sans&amp;quot;, sans-serif; text-align: left;&quot;&gt;thanh toán&lt;/strong&gt;&lt;/div&gt;" style="shape=step;perimeter=stepPerimeter;fontFamily=Helvetica;fontSize=14;fixedSize=1;size=17;fontStyle=1;strokeWidth=2;spacingTop=0;points=[];fillColor=#f8cecc;strokeColor=#b85450;html=1;whiteSpace=wrap;spacing=10;align=center;" vertex="1" parent="l-kLitbtD4qd4CKumxQw-35">
          <mxGeometry x="538" y="30" width="98" height="83" as="geometry" />
        </mxCell>
        <mxCell id="l-kLitbtD4qd4CKumxQw-43" value="&lt;div style=&quot;padding-top: 0px; padding-right: 2px; padding-left: 2px;&quot;&gt;&lt;strong style=&quot;color: rgb(59, 59, 59); font-family: -apple-system, BlinkMacSystemFont, &amp;quot;Segoe WPC&amp;quot;, &amp;quot;Segoe UI&amp;quot;, system-ui, Ubuntu, &amp;quot;Droid Sans&amp;quot;, sans-serif; text-align: left;&quot;&gt;Báo cáo&lt;/strong&gt;&lt;/div&gt;&lt;div style=&quot;padding-top: 0px; padding-right: 2px; padding-left: 2px;&quot;&gt;&lt;strong style=&quot;color: rgb(59, 59, 59); font-family: -apple-system, BlinkMacSystemFont, &amp;quot;Segoe WPC&amp;quot;, &amp;quot;Segoe UI&amp;quot;, system-ui, Ubuntu, &amp;quot;Droid Sans&amp;quot;, sans-serif; text-align: left;&quot;&gt;&amp;nbsp;và cải tiến&lt;/strong&gt;&lt;/div&gt;" style="shape=step;perimeter=stepPerimeter;fontFamily=Helvetica;fontSize=14;fixedSize=1;size=17;fontStyle=1;strokeWidth=2;spacingTop=0;points=[];fillColor=#e1d5e7;strokeColor=#9673a6;html=1;whiteSpace=wrap;spacing=10;align=center;" vertex="1" parent="l-kLitbtD4qd4CKumxQw-35">
          <mxGeometry x="626" y="30" width="98" height="83" as="geometry" />
        </mxCell>
        <mxCell id="l-kLitbtD4qd4CKumxQw-44" value="&lt;div style=&quot;padding-top: 0px; padding-right: 2px; padding-left: 2px;&quot;&gt;&lt;span style=&quot;background-color: transparent; color: light-dark(rgb(0, 0, 0), rgb(255, 255, 255));&quot;&gt;Lập kế hoạch quản lý bưu tá&lt;/span&gt;&lt;/div&gt;" style="shape=step;perimeter=stepPerimeter;fontFamily=Helvetica;fontSize=14;fixedSize=1;size=17;fontStyle=1;strokeWidth=2;spacingTop=0;points=[];fillColor=#b0e3e6;strokeColor=#0e8088;html=1;whiteSpace=wrap;spacing=10;align=center;" vertex="1" parent="l-kLitbtD4qd4CKumxQw-35">
          <mxGeometry x="714" y="30" width="98" height="83" as="geometry" />
        </mxCell>
        <mxCell id="l-kLitbtD4qd4CKumxQw-54" value="Quản lý tài chính và đối soát" style="swimlane;fontStyle=2;childLayout=stackLayout;horizontal=1;startSize=20;horizontalStack=1;resizeParent=1;resizeParentMax=0;resizeLast=0;collapsible=0;marginBottom=0;swimlaneFillColor=none;fontFamily=Helvetica;fontSize=14;points=[];verticalAlign=middle;stackBorder=10;stackSpacing=-10;resizable=1;swimlaneLine=1;flipH=0;flipV=0;glass=0;" vertex="1" parent="1">
          <mxGeometry x="-802" y="218" width="558" height="123" as="geometry" />
        </mxCell>
        <mxCell id="l-kLitbtD4qd4CKumxQw-55" value="&lt;div style=&quot;padding-top: 0px; padding-right: 2px; padding-left: 2px;&quot;&gt;&lt;strong style=&quot;color: rgb(59, 59, 59); font-family: -apple-system, BlinkMacSystemFont, &amp;quot;Segoe WPC&amp;quot;, &amp;quot;Segoe UI&amp;quot;, system-ui, Ubuntu, &amp;quot;Droid Sans&amp;quot;, sans-serif; text-align: left;&quot;&gt;&amp;nbsp; Tổng hợp dữ&amp;nbsp;&lt;/strong&gt;&lt;/div&gt;&lt;div style=&quot;padding-top: 0px; padding-right: 2px; padding-left: 2px;&quot;&gt;&lt;strong style=&quot;color: rgb(59, 59, 59); font-family: -apple-system, BlinkMacSystemFont, &amp;quot;Segoe WPC&amp;quot;, &amp;quot;Segoe UI&amp;quot;, system-ui, Ubuntu, &amp;quot;Droid Sans&amp;quot;, sans-serif; text-align: left;&quot;&gt;liệu thu chi&lt;/strong&gt;&lt;/div&gt;" style="shape=step;perimeter=stepPerimeter;fontFamily=Helvetica;fontSize=14;fixedSize=1;size=17;fontStyle=1;strokeWidth=2;spacingTop=0;points=[];fillColor=#FFFFFF;strokeColor=#000000;html=1;whiteSpace=wrap;spacing=10;align=center;" vertex="1" parent="l-kLitbtD4qd4CKumxQw-54">
          <mxGeometry x="10" y="30" width="98" height="83" as="geometry" />
        </mxCell>
        <mxCell id="l-kLitbtD4qd4CKumxQw-56" value="&lt;div style=&quot;padding-top: 0px; padding-right: 2px; padding-left: 2px;&quot;&gt;&lt;strong style=&quot;color: rgb(59, 59, 59); font-family: -apple-system, BlinkMacSystemFont, &amp;quot;Segoe WPC&amp;quot;, &amp;quot;Segoe UI&amp;quot;, system-ui, Ubuntu, &amp;quot;Droid Sans&amp;quot;, sans-serif; text-align: left;&quot;&gt;Kiểm tra và chuẩn hóa dữ liệu&lt;/strong&gt;&lt;/div&gt;" style="shape=step;perimeter=stepPerimeter;fontFamily=Helvetica;fontSize=14;fixedSize=1;size=17;fontStyle=1;strokeWidth=2;spacingTop=0;points=[];fillColor=#f5f5f5;strokeColor=#666666;html=1;whiteSpace=wrap;spacing=10;align=center;fontColor=#333333;" vertex="1" parent="l-kLitbtD4qd4CKumxQw-54">
          <mxGeometry x="98" y="30" width="98" height="83" as="geometry" />
        </mxCell>
        <mxCell id="l-kLitbtD4qd4CKumxQw-57" value="&lt;div style=&quot;padding-top: 0px; padding-right: 2px; padding-left: 2px;&quot;&gt;&lt;strong style=&quot;color: rgb(59, 59, 59); font-family: -apple-system, BlinkMacSystemFont, &amp;quot;Segoe WPC&amp;quot;, &amp;quot;Segoe UI&amp;quot;, system-ui, Ubuntu, &amp;quot;Droid Sans&amp;quot;, sans-serif; text-align: left;&quot;&gt;Gửi đề nghị&amp;nbsp;&lt;/strong&gt;&lt;/div&gt;&lt;div style=&quot;padding-top: 0px; padding-right: 2px; padding-left: 2px;&quot;&gt;&lt;strong style=&quot;color: rgb(59, 59, 59); font-family: -apple-system, BlinkMacSystemFont, &amp;quot;Segoe WPC&amp;quot;, &amp;quot;Segoe UI&amp;quot;, system-ui, Ubuntu, &amp;quot;Droid Sans&amp;quot;, sans-serif; text-align: left;&quot;&gt;&amp;nbsp;thanh toán COD&lt;/strong&gt;&lt;/div&gt;" style="shape=step;perimeter=stepPerimeter;fontFamily=Helvetica;fontSize=14;fixedSize=1;size=17;fontStyle=1;strokeWidth=2;spacingTop=0;points=[];fillColor=#dae8fc;strokeColor=#6c8ebf;html=1;whiteSpace=wrap;spacing=10;align=center;" vertex="1" parent="l-kLitbtD4qd4CKumxQw-54">
          <mxGeometry x="186" y="30" width="98" height="83" as="geometry" />
        </mxCell>
        <mxCell id="l-kLitbtD4qd4CKumxQw-58" value="&lt;div style=&quot;padding-top: 0px; padding-right: 2px; padding-left: 2px;&quot;&gt;&lt;strong style=&quot;color: rgb(59, 59, 59); font-family: -apple-system, BlinkMacSystemFont, &amp;quot;Segoe WPC&amp;quot;, &amp;quot;Segoe UI&amp;quot;, system-ui, Ubuntu, &amp;quot;Droid Sans&amp;quot;, sans-serif; text-align: left;&quot;&gt;Phê&amp;nbsp;&lt;/strong&gt;&lt;/div&gt;&lt;div style=&quot;padding-top: 0px; padding-right: 2px; padding-left: 2px;&quot;&gt;&lt;strong style=&quot;color: rgb(59, 59, 59); font-family: -apple-system, BlinkMacSystemFont, &amp;quot;Segoe WPC&amp;quot;, &amp;quot;Segoe UI&amp;quot;, system-ui, Ubuntu, &amp;quot;Droid Sans&amp;quot;, sans-serif; text-align: left;&quot;&gt;duyệt tài chính&lt;/strong&gt;&lt;/div&gt;" style="shape=step;perimeter=stepPerimeter;fontFamily=Helvetica;fontSize=14;fixedSize=1;size=17;fontStyle=1;strokeWidth=2;spacingTop=0;points=[];fillColor=#d5e8d4;strokeColor=#82b366;html=1;whiteSpace=wrap;spacing=10;align=center;" vertex="1" parent="l-kLitbtD4qd4CKumxQw-54">
          <mxGeometry x="274" y="30" width="98" height="83" as="geometry" />
        </mxCell>
        <mxCell id="l-kLitbtD4qd4CKumxQw-59" value="&lt;div style=&quot;padding-top: 0px; padding-right: 2px; padding-left: 2px;&quot;&gt;&lt;strong style=&quot;color: rgb(59, 59, 59); font-family: -apple-system, BlinkMacSystemFont, &amp;quot;Segoe WPC&amp;quot;, &amp;quot;Segoe UI&amp;quot;, system-ui, Ubuntu, &amp;quot;Droid Sans&amp;quot;, sans-serif; text-align: left;&quot;&gt;&amp;nbsp;Thực hiện thanh&lt;/strong&gt;&lt;/div&gt;&lt;div style=&quot;padding-top: 0px; padding-right: 2px; padding-left: 2px;&quot;&gt;&lt;strong style=&quot;color: rgb(59, 59, 59); font-family: -apple-system, BlinkMacSystemFont, &amp;quot;Segoe WPC&amp;quot;, &amp;quot;Segoe UI&amp;quot;, system-ui, Ubuntu, &amp;quot;Droid Sans&amp;quot;, sans-serif; text-align: left;&quot;&gt;&amp;nbsp;toán&lt;/strong&gt;&lt;/div&gt;" style="shape=step;perimeter=stepPerimeter;fontFamily=Helvetica;fontSize=14;fixedSize=1;size=17;fontStyle=1;strokeWidth=2;spacingTop=0;points=[];fillColor=#ffe6cc;strokeColor=#d79b00;html=1;whiteSpace=wrap;spacing=10;align=center;" vertex="1" parent="l-kLitbtD4qd4CKumxQw-54">
          <mxGeometry x="362" y="30" width="98" height="83" as="geometry" />
        </mxCell>
        <mxCell id="l-kLitbtD4qd4CKumxQw-60" value="&lt;div style=&quot;padding-top: 0px; padding-right: 2px; padding-left: 2px;&quot;&gt;&lt;strong style=&quot;color: rgb(59, 59, 59); font-family: -apple-system, BlinkMacSystemFont, &amp;quot;Segoe WPC&amp;quot;, &amp;quot;Segoe UI&amp;quot;, system-ui, Ubuntu, &amp;quot;Droid Sans&amp;quot;, sans-serif; text-align: left;&quot;&gt;Lập báo cáo định kỳ&lt;/strong&gt;&lt;/div&gt;" style="shape=step;perimeter=stepPerimeter;fontFamily=Helvetica;fontSize=14;fixedSize=1;size=17;fontStyle=1;strokeWidth=2;spacingTop=0;points=[];fillColor=#fff2cc;strokeColor=#d6b656;html=1;whiteSpace=wrap;spacing=10;align=center;" vertex="1" parent="l-kLitbtD4qd4CKumxQw-54">
          <mxGeometry x="450" y="30" width="98" height="83" as="geometry" />
        </mxCell>
        <mxCell id="l-kLitbtD4qd4CKumxQw-63" value="Quản lý lộ trình giao hàng" style="swimlane;fontStyle=2;childLayout=stackLayout;horizontal=1;startSize=20;horizontalStack=1;resizeParent=1;resizeParentMax=0;resizeLast=0;collapsible=0;marginBottom=0;swimlaneFillColor=none;fontFamily=Helvetica;fontSize=14;points=[];verticalAlign=middle;stackBorder=10;stackSpacing=-10;resizable=1;swimlaneLine=1;flipH=0;flipV=0;glass=0;" vertex="1" parent="1">
          <mxGeometry x="-802" y="358" width="646" height="123" as="geometry" />
        </mxCell>
        <mxCell id="l-kLitbtD4qd4CKumxQw-64" value="&lt;div style=&quot;padding-top: 0px; padding-right: 2px; padding-left: 2px;&quot;&gt;&lt;strong style=&quot;color: rgb(59, 59, 59); font-family: -apple-system, BlinkMacSystemFont, &amp;quot;Segoe WPC&amp;quot;, &amp;quot;Segoe UI&amp;quot;, system-ui, Ubuntu, &amp;quot;Droid Sans&amp;quot;, sans-serif; text-align: left;&quot;&gt;Lập kế hoạch lộ trình&lt;/strong&gt;&lt;/div&gt;" style="shape=step;perimeter=stepPerimeter;fontFamily=Helvetica;fontSize=14;fixedSize=1;size=17;fontStyle=1;strokeWidth=2;spacingTop=0;points=[];fillColor=#FFFFFF;strokeColor=#000000;html=1;whiteSpace=wrap;spacing=10;align=center;" vertex="1" parent="l-kLitbtD4qd4CKumxQw-63">
          <mxGeometry x="10" y="30" width="98" height="83" as="geometry" />
        </mxCell>
        <mxCell id="l-kLitbtD4qd4CKumxQw-65" value="&lt;div style=&quot;padding-top: 0px; padding-right: 2px; padding-left: 2px;&quot;&gt;&lt;strong style=&quot;color: rgb(59, 59, 59); font-family: -apple-system, BlinkMacSystemFont, &amp;quot;Segoe WPC&amp;quot;, &amp;quot;Segoe UI&amp;quot;, system-ui, Ubuntu, &amp;quot;Droid Sans&amp;quot;, sans-serif; text-align: left;&quot;&gt;Cung cấp thông&amp;nbsp;&lt;/strong&gt;&lt;/div&gt;&lt;div style=&quot;padding-top: 0px; padding-right: 2px; padding-left: 2px;&quot;&gt;&lt;strong style=&quot;color: rgb(59, 59, 59); font-family: -apple-system, BlinkMacSystemFont, &amp;quot;Segoe WPC&amp;quot;, &amp;quot;Segoe UI&amp;quot;, system-ui, Ubuntu, &amp;quot;Droid Sans&amp;quot;, sans-serif; text-align: left;&quot;&gt;tin đơn hàng&lt;/strong&gt;&lt;/div&gt;" style="shape=step;perimeter=stepPerimeter;fontFamily=Helvetica;fontSize=14;fixedSize=1;size=17;fontStyle=1;strokeWidth=2;spacingTop=0;points=[];fillColor=#f5f5f5;strokeColor=#666666;html=1;whiteSpace=wrap;spacing=10;align=center;fontColor=#333333;" vertex="1" parent="l-kLitbtD4qd4CKumxQw-63">
          <mxGeometry x="98" y="30" width="98" height="83" as="geometry" />
        </mxCell>
        <mxCell id="l-kLitbtD4qd4CKumxQw-66" value="&lt;div style=&quot;padding-top: 0px; padding-right: 2px; padding-left: 2px;&quot;&gt;&lt;strong style=&quot;color: rgb(59, 59, 59); font-family: -apple-system, BlinkMacSystemFont, &amp;quot;Segoe WPC&amp;quot;, &amp;quot;Segoe UI&amp;quot;, system-ui, Ubuntu, &amp;quot;Droid Sans&amp;quot;, sans-serif; text-align: left;&quot;&gt;Tối ưu hóa tuyến đường&lt;/strong&gt;&lt;/div&gt;" style="shape=step;perimeter=stepPerimeter;fontFamily=Helvetica;fontSize=14;fixedSize=1;size=17;fontStyle=1;strokeWidth=2;spacingTop=0;points=[];fillColor=#dae8fc;strokeColor=#6c8ebf;html=1;whiteSpace=wrap;spacing=10;align=center;" vertex="1" parent="l-kLitbtD4qd4CKumxQw-63">
          <mxGeometry x="186" y="30" width="98" height="83" as="geometry" />
        </mxCell>
        <mxCell id="l-kLitbtD4qd4CKumxQw-67" value="&lt;div style=&quot;padding-top: 0px; padding-right: 2px; padding-left: 2px;&quot;&gt;&lt;strong style=&quot;color: rgb(59, 59, 59); font-family: -apple-system, BlinkMacSystemFont, &amp;quot;Segoe WPC&amp;quot;, &amp;quot;Segoe UI&amp;quot;, system-ui, Ubuntu, &amp;quot;Droid Sans&amp;quot;, sans-serif; text-align: left;&quot;&gt;Phân&amp;nbsp;&lt;/strong&gt;&lt;/div&gt;&lt;div style=&quot;padding-top: 0px; padding-right: 2px; padding-left: 2px;&quot;&gt;&lt;strong style=&quot;color: rgb(59, 59, 59); font-family: -apple-system, BlinkMacSystemFont, &amp;quot;Segoe WPC&amp;quot;, &amp;quot;Segoe UI&amp;quot;, system-ui, Ubuntu, &amp;quot;Droid Sans&amp;quot;, sans-serif; text-align: left;&quot;&gt;công&amp;nbsp;&lt;/strong&gt;&lt;/div&gt;&lt;div style=&quot;padding-top: 0px; padding-right: 2px; padding-left: 2px;&quot;&gt;&lt;strong style=&quot;color: rgb(59, 59, 59); font-family: -apple-system, BlinkMacSystemFont, &amp;quot;Segoe WPC&amp;quot;, &amp;quot;Segoe UI&amp;quot;, system-ui, Ubuntu, &amp;quot;Droid Sans&amp;quot;, sans-serif; text-align: left;&quot;&gt;đơn hàng&lt;/strong&gt;&lt;/div&gt;" style="shape=step;perimeter=stepPerimeter;fontFamily=Helvetica;fontSize=14;fixedSize=1;size=17;fontStyle=1;strokeWidth=2;spacingTop=0;points=[];fillColor=#d5e8d4;strokeColor=#82b366;html=1;whiteSpace=wrap;spacing=10;align=center;" vertex="1" parent="l-kLitbtD4qd4CKumxQw-63">
          <mxGeometry x="274" y="30" width="98" height="83" as="geometry" />
        </mxCell>
        <mxCell id="l-kLitbtD4qd4CKumxQw-68" value="&lt;div style=&quot;padding-top: 0px; padding-right: 2px; padding-left: 2px;&quot;&gt;&lt;strong style=&quot;color: rgb(59, 59, 59); font-family: -apple-system, BlinkMacSystemFont, &amp;quot;Segoe WPC&amp;quot;, &amp;quot;Segoe UI&amp;quot;, system-ui, Ubuntu, &amp;quot;Droid Sans&amp;quot;, sans-serif; text-align: left;&quot;&gt;Thực hiện giao hàng&lt;/strong&gt;&lt;/div&gt;" style="shape=step;perimeter=stepPerimeter;fontFamily=Helvetica;fontSize=14;fixedSize=1;size=17;fontStyle=1;strokeWidth=2;spacingTop=0;points=[];fillColor=#ffe6cc;strokeColor=#d79b00;html=1;whiteSpace=wrap;spacing=10;align=center;" vertex="1" parent="l-kLitbtD4qd4CKumxQw-63">
          <mxGeometry x="362" y="30" width="98" height="83" as="geometry" />
        </mxCell>
        <mxCell id="l-kLitbtD4qd4CKumxQw-69" value="&lt;div style=&quot;padding-top: 0px; padding-right: 2px; padding-left: 2px;&quot;&gt;&lt;strong style=&quot;color: rgb(59, 59, 59); font-family: -apple-system, BlinkMacSystemFont, &amp;quot;Segoe WPC&amp;quot;, &amp;quot;Segoe UI&amp;quot;, system-ui, Ubuntu, &amp;quot;Droid Sans&amp;quot;, sans-serif; text-align: left;&quot;&gt;Xử lý sự cố giao hàng&lt;/strong&gt;&lt;/div&gt;" style="shape=step;perimeter=stepPerimeter;fontFamily=Helvetica;fontSize=14;fixedSize=1;size=17;fontStyle=1;strokeWidth=2;spacingTop=0;points=[];fillColor=#fff2cc;strokeColor=#d6b656;html=1;whiteSpace=wrap;spacing=10;align=center;" vertex="1" parent="l-kLitbtD4qd4CKumxQw-63">
          <mxGeometry x="450" y="30" width="98" height="83" as="geometry" />
        </mxCell>
        <mxCell id="l-kLitbtD4qd4CKumxQw-70" value="&lt;div style=&quot;padding-top: 0px; padding-right: 2px; padding-left: 2px;&quot;&gt;&lt;strong style=&quot;color: rgb(59, 59, 59); font-family: -apple-system, BlinkMacSystemFont, &amp;quot;Segoe WPC&amp;quot;, &amp;quot;Segoe UI&amp;quot;, system-ui, Ubuntu, &amp;quot;Droid Sans&amp;quot;, sans-serif; text-align: left;&quot;&gt;Báo cáo&lt;/strong&gt;&lt;/div&gt;&lt;div style=&quot;padding-top: 0px; padding-right: 2px; padding-left: 2px;&quot;&gt;&lt;strong style=&quot;color: rgb(59, 59, 59); font-family: -apple-system, BlinkMacSystemFont, &amp;quot;Segoe WPC&amp;quot;, &amp;quot;Segoe UI&amp;quot;, system-ui, Ubuntu, &amp;quot;Droid Sans&amp;quot;, sans-serif; text-align: left;&quot;&gt;&amp;nbsp;và cải tiến&lt;/strong&gt;&lt;/div&gt;" style="shape=step;perimeter=stepPerimeter;fontFamily=Helvetica;fontSize=14;fixedSize=1;size=17;fontStyle=1;strokeWidth=2;spacingTop=0;points=[];fillColor=#f8cecc;strokeColor=#b85450;html=1;whiteSpace=wrap;spacing=10;align=center;" vertex="1" parent="l-kLitbtD4qd4CKumxQw-63">
          <mxGeometry x="538" y="30" width="98" height="83" as="geometry" />
        </mxCell>
        <mxCell id="l-kLitbtD4qd4CKumxQw-72" value="&lt;div style=&quot;color: rgb(59, 59, 59); background-color: rgb(255, 255, 255); font-family: Consolas, &amp;quot;Courier New&amp;quot;, monospace; font-weight: normal; line-height: 19px; white-space: pre;&quot;&gt;&lt;span style=&quot;color: #800000;font-weight: bold;&quot;&gt;Kiến trúc Quy trình Quản lý&lt;/span&gt;&lt;/div&gt;" style="text;html=1;align=center;verticalAlign=middle;whiteSpace=wrap;rounded=0;fontFamily=Helvetica;fontSize=20;fontColor=default;fontStyle=1;" vertex="1" parent="1">
          <mxGeometry x="-802" y="30" width="302" height="30" as="geometry" />
        </mxCell>
        <mxCell id="l-kLitbtD4qd4CKumxQw-73" value="&lt;div style=&quot;color: rgb(59, 59, 59); background-color: rgb(255, 255, 255); font-family: Consolas, &amp;quot;Courier New&amp;quot;, monospace; font-weight: normal; line-height: 19px; white-space: pre;&quot;&gt;&lt;span style=&quot;color: rgb(128, 0, 0); font-weight: bold;&quot;&gt;Kiến Trúc Quy Trình Cốt Lõi &lt;/span&gt;&lt;/div&gt;" style="text;html=1;align=center;verticalAlign=middle;whiteSpace=wrap;rounded=0;fontFamily=Helvetica;fontSize=20;fontColor=default;fontStyle=1;" vertex="1" parent="1">
          <mxGeometry x="38" y="30" width="327" height="30" as="geometry" />
        </mxCell>
        <mxCell id="l-kLitbtD4qd4CKumxQw-74" value="Tiếp nhận và xử lý đơn hàng" style="swimlane;fontStyle=2;childLayout=stackLayout;horizontal=1;startSize=20;horizontalStack=1;resizeParent=1;resizeParentMax=0;resizeLast=0;collapsible=0;marginBottom=0;swimlaneFillColor=none;fontFamily=Helvetica;fontSize=14;points=[];verticalAlign=middle;stackBorder=10;stackSpacing=-10;resizable=1;swimlaneLine=1;flipH=0;flipV=0;glass=0;" vertex="1" parent="1">
          <mxGeometry x="38" y="75" width="646" height="123" as="geometry" />
        </mxCell>
        <mxCell id="l-kLitbtD4qd4CKumxQw-75" value="&lt;div style=&quot;padding-top: 0px; padding-right: 2px; padding-left: 2px;&quot;&gt;&lt;strong style=&quot;color: rgb(59, 59, 59); font-family: -apple-system, BlinkMacSystemFont, &amp;quot;Segoe WPC&amp;quot;, &amp;quot;Segoe UI&amp;quot;, system-ui, Ubuntu, &amp;quot;Droid Sans&amp;quot;, sans-serif; text-align: left;&quot;&gt;Thu nhận thông tin đơn hàng&lt;/strong&gt;&lt;/div&gt;" style="shape=step;perimeter=stepPerimeter;fontFamily=Helvetica;fontSize=14;fixedSize=1;size=17;fontStyle=1;strokeWidth=2;spacingTop=0;points=[];fillColor=#FFFFFF;strokeColor=#000000;html=1;whiteSpace=wrap;spacing=10;align=center;" vertex="1" parent="l-kLitbtD4qd4CKumxQw-74">
          <mxGeometry x="10" y="30" width="98" height="83" as="geometry" />
        </mxCell>
        <mxCell id="l-kLitbtD4qd4CKumxQw-76" value="&lt;div style=&quot;padding-top: 0px; padding-right: 2px; padding-left: 2px;&quot;&gt;&lt;strong style=&quot;color: rgb(59, 59, 59); font-family: -apple-system, BlinkMacSystemFont, &amp;quot;Segoe WPC&amp;quot;, &amp;quot;Segoe UI&amp;quot;, system-ui, Ubuntu, &amp;quot;Droid Sans&amp;quot;, sans-serif; text-align: left;&quot;&gt;Kiểm tra thông tin đơn hàng&lt;/strong&gt;&lt;/div&gt;" style="shape=step;perimeter=stepPerimeter;fontFamily=Helvetica;fontSize=14;fixedSize=1;size=17;fontStyle=1;strokeWidth=2;spacingTop=0;points=[];fillColor=#f5f5f5;strokeColor=#666666;html=1;whiteSpace=wrap;spacing=10;align=center;fontColor=#333333;" vertex="1" parent="l-kLitbtD4qd4CKumxQw-74">
          <mxGeometry x="98" y="30" width="98" height="83" as="geometry" />
        </mxCell>
        <mxCell id="l-kLitbtD4qd4CKumxQw-77" value="&lt;div style=&quot;padding-top: 0px; padding-right: 2px; padding-left: 2px;&quot;&gt;&lt;strong style=&quot;color: rgb(59, 59, 59); font-family: -apple-system, BlinkMacSystemFont, &amp;quot;Segoe WPC&amp;quot;, &amp;quot;Segoe UI&amp;quot;, system-ui, Ubuntu, &amp;quot;Droid Sans&amp;quot;, sans-serif; text-align: left;&quot;&gt;Mã hóa và nhập hệ thống&lt;/strong&gt;&lt;/div&gt;" style="shape=step;perimeter=stepPerimeter;fontFamily=Helvetica;fontSize=14;fixedSize=1;size=17;fontStyle=1;strokeWidth=2;spacingTop=0;points=[];fillColor=#dae8fc;strokeColor=#6c8ebf;html=1;whiteSpace=wrap;spacing=10;align=center;" vertex="1" parent="l-kLitbtD4qd4CKumxQw-74">
          <mxGeometry x="186" y="30" width="98" height="83" as="geometry" />
        </mxCell>
        <mxCell id="l-kLitbtD4qd4CKumxQw-78" value="&lt;div style=&quot;padding-top: 0px; padding-right: 2px; padding-left: 2px;&quot;&gt;&lt;strong style=&quot;color: rgb(59, 59, 59); font-family: -apple-system, BlinkMacSystemFont, &amp;quot;Segoe WPC&amp;quot;, &amp;quot;Segoe UI&amp;quot;, system-ui, Ubuntu, &amp;quot;Droid Sans&amp;quot;, sans-serif; text-align: left;&quot;&gt;Phân loại đơn hàng&lt;/strong&gt;&lt;/div&gt;" style="shape=step;perimeter=stepPerimeter;fontFamily=Helvetica;fontSize=14;fixedSize=1;size=17;fontStyle=1;strokeWidth=2;spacingTop=0;points=[];fillColor=#d5e8d4;strokeColor=#82b366;html=1;whiteSpace=wrap;spacing=10;align=center;" vertex="1" parent="l-kLitbtD4qd4CKumxQw-74">
          <mxGeometry x="274" y="30" width="98" height="83" as="geometry" />
        </mxCell>
        <mxCell id="l-kLitbtD4qd4CKumxQw-79" value="&lt;div style=&quot;padding-top: 0px; padding-right: 2px; padding-left: 2px;&quot;&gt;&lt;strong style=&quot;color: rgb(59, 59, 59); font-family: -apple-system, BlinkMacSystemFont, &amp;quot;Segoe WPC&amp;quot;, &amp;quot;Segoe UI&amp;quot;, system-ui, Ubuntu, &amp;quot;Droid Sans&amp;quot;, sans-serif; text-align: left;&quot;&gt;Chuyển đơn đến kho&lt;/strong&gt;&lt;/div&gt;" style="shape=step;perimeter=stepPerimeter;fontFamily=Helvetica;fontSize=14;fixedSize=1;size=17;fontStyle=1;strokeWidth=2;spacingTop=0;points=[];fillColor=#ffe6cc;strokeColor=#d79b00;html=1;whiteSpace=wrap;spacing=10;align=center;" vertex="1" parent="l-kLitbtD4qd4CKumxQw-74">
          <mxGeometry x="362" y="30" width="98" height="83" as="geometry" />
        </mxCell>
        <mxCell id="l-kLitbtD4qd4CKumxQw-80" value="&lt;div style=&quot;padding-top: 0px; padding-right: 2px; padding-left: 2px;&quot;&gt;&lt;strong style=&quot;color: rgb(59, 59, 59); font-family: -apple-system, BlinkMacSystemFont, &amp;quot;Segoe WPC&amp;quot;, &amp;quot;Segoe UI&amp;quot;, system-ui, Ubuntu, &amp;quot;Droid Sans&amp;quot;, sans-serif; text-align: left;&quot;&gt;Cập nhật trạng thái đơn hàng&lt;/strong&gt;&lt;/div&gt;" style="shape=step;perimeter=stepPerimeter;fontFamily=Helvetica;fontSize=14;fixedSize=1;size=17;fontStyle=1;strokeWidth=2;spacingTop=0;points=[];fillColor=#fff2cc;strokeColor=#d6b656;html=1;whiteSpace=wrap;spacing=10;align=center;" vertex="1" parent="l-kLitbtD4qd4CKumxQw-74">
          <mxGeometry x="450" y="30" width="98" height="83" as="geometry" />
        </mxCell>
        <mxCell id="l-kLitbtD4qd4CKumxQw-81" value="&lt;div style=&quot;padding-top: 0px; padding-right: 2px; padding-left: 2px;&quot;&gt;&lt;strong style=&quot;color: rgb(59, 59, 59); font-family: -apple-system, BlinkMacSystemFont, &amp;quot;Segoe WPC&amp;quot;, &amp;quot;Segoe UI&amp;quot;, system-ui, Ubuntu, &amp;quot;Droid Sans&amp;quot;, sans-serif; text-align: left;&quot;&gt;Kiểm tra trước giao&lt;/strong&gt;&lt;/div&gt;" style="shape=step;perimeter=stepPerimeter;fontFamily=Helvetica;fontSize=14;fixedSize=1;size=17;fontStyle=1;strokeWidth=2;spacingTop=0;points=[];fillColor=#f8cecc;strokeColor=#b85450;html=1;whiteSpace=wrap;spacing=10;align=center;" vertex="1" parent="l-kLitbtD4qd4CKumxQw-74">
          <mxGeometry x="538" y="30" width="98" height="83" as="geometry" />
        </mxCell>
        <mxCell id="l-kLitbtD4qd4CKumxQw-84" value="Giao hàng và thu hộ (COD)" style="swimlane;fontStyle=2;childLayout=stackLayout;horizontal=1;startSize=20;horizontalStack=1;resizeParent=1;resizeParentMax=0;resizeLast=0;collapsible=0;marginBottom=0;swimlaneFillColor=none;fontFamily=Helvetica;fontSize=14;points=[];verticalAlign=middle;stackBorder=10;stackSpacing=-10;resizable=1;swimlaneLine=1;flipH=0;flipV=0;glass=0;" vertex="1" parent="1">
          <mxGeometry x="38" y="217" width="558" height="123" as="geometry" />
        </mxCell>
        <mxCell id="l-kLitbtD4qd4CKumxQw-85" value="&lt;div style=&quot;padding-top: 0px; padding-right: 2px; padding-left: 2px;&quot;&gt;&lt;strong style=&quot;color: rgb(59, 59, 59); font-family: -apple-system, BlinkMacSystemFont, &amp;quot;Segoe WPC&amp;quot;, &amp;quot;Segoe UI&amp;quot;, system-ui, Ubuntu, &amp;quot;Droid Sans&amp;quot;, sans-serif; text-align: left;&quot;&gt;&amp;nbsp; Nhận đơn từ kho&lt;/strong&gt;&lt;/div&gt;" style="shape=step;perimeter=stepPerimeter;fontFamily=Helvetica;fontSize=14;fixedSize=1;size=17;fontStyle=1;strokeWidth=2;spacingTop=0;points=[];fillColor=#FFFFFF;strokeColor=#000000;html=1;whiteSpace=wrap;spacing=10;align=center;" vertex="1" parent="l-kLitbtD4qd4CKumxQw-84">
          <mxGeometry x="10" y="30" width="98" height="83" as="geometry" />
        </mxCell>
        <mxCell id="l-kLitbtD4qd4CKumxQw-86" value="&lt;div style=&quot;padding-top: 0px; padding-right: 2px; padding-left: 2px;&quot;&gt;&lt;strong style=&quot;color: rgb(59, 59, 59); font-family: -apple-system, BlinkMacSystemFont, &amp;quot;Segoe WPC&amp;quot;, &amp;quot;Segoe UI&amp;quot;, system-ui, Ubuntu, &amp;quot;Droid Sans&amp;quot;, sans-serif; text-align: left;&quot;&gt;Lên kế hoạch&lt;/strong&gt;&lt;/div&gt;&lt;div style=&quot;padding-top: 0px; padding-right: 2px; padding-left: 2px;&quot;&gt;&lt;strong style=&quot;color: rgb(59, 59, 59); font-family: -apple-system, BlinkMacSystemFont, &amp;quot;Segoe WPC&amp;quot;, &amp;quot;Segoe UI&amp;quot;, system-ui, Ubuntu, &amp;quot;Droid Sans&amp;quot;, sans-serif; text-align: left;&quot;&gt;&amp;nbsp;giao hàng&lt;/strong&gt;&lt;/div&gt;" style="shape=step;perimeter=stepPerimeter;fontFamily=Helvetica;fontSize=14;fixedSize=1;size=17;fontStyle=1;strokeWidth=2;spacingTop=0;points=[];fillColor=#f5f5f5;strokeColor=#666666;html=1;whiteSpace=wrap;spacing=10;align=center;fontColor=#333333;" vertex="1" parent="l-kLitbtD4qd4CKumxQw-84">
          <mxGeometry x="98" y="30" width="98" height="83" as="geometry" />
        </mxCell>
        <mxCell id="l-kLitbtD4qd4CKumxQw-87" value="&lt;div style=&quot;padding-top: 0px; padding-right: 2px; padding-left: 2px;&quot;&gt;&lt;strong style=&quot;color: rgb(59, 59, 59); font-family: -apple-system, BlinkMacSystemFont, &amp;quot;Segoe WPC&amp;quot;, &amp;quot;Segoe UI&amp;quot;, system-ui, Ubuntu, &amp;quot;Droid Sans&amp;quot;, sans-serif; text-align: left;&quot;&gt;Liên hệ khách hàng&lt;/strong&gt;&lt;/div&gt;" style="shape=step;perimeter=stepPerimeter;fontFamily=Helvetica;fontSize=14;fixedSize=1;size=17;fontStyle=1;strokeWidth=2;spacingTop=0;points=[];fillColor=#dae8fc;strokeColor=#6c8ebf;html=1;whiteSpace=wrap;spacing=10;align=center;" vertex="1" parent="l-kLitbtD4qd4CKumxQw-84">
          <mxGeometry x="186" y="30" width="98" height="83" as="geometry" />
        </mxCell>
        <mxCell id="l-kLitbtD4qd4CKumxQw-88" value="&lt;div style=&quot;padding-top: 0px; padding-right: 2px; padding-left: 2px;&quot;&gt;&lt;strong style=&quot;color: rgb(59, 59, 59); font-family: -apple-system, BlinkMacSystemFont, &amp;quot;Segoe WPC&amp;quot;, &amp;quot;Segoe UI&amp;quot;, system-ui, Ubuntu, &amp;quot;Droid Sans&amp;quot;, sans-serif; text-align: left;&quot;&gt;Thực&lt;/strong&gt;&lt;/div&gt;&lt;div style=&quot;padding-top: 0px; padding-right: 2px; padding-left: 2px;&quot;&gt;&lt;strong style=&quot;color: rgb(59, 59, 59); font-family: -apple-system, BlinkMacSystemFont, &amp;quot;Segoe WPC&amp;quot;, &amp;quot;Segoe UI&amp;quot;, system-ui, Ubuntu, &amp;quot;Droid Sans&amp;quot;, sans-serif; text-align: left;&quot;&gt;&amp;nbsp;hiện giao hàng&lt;/strong&gt;&lt;/div&gt;" style="shape=step;perimeter=stepPerimeter;fontFamily=Helvetica;fontSize=14;fixedSize=1;size=17;fontStyle=1;strokeWidth=2;spacingTop=0;points=[];fillColor=#d5e8d4;strokeColor=#82b366;html=1;whiteSpace=wrap;spacing=10;align=center;" vertex="1" parent="l-kLitbtD4qd4CKumxQw-84">
          <mxGeometry x="274" y="30" width="98" height="83" as="geometry" />
        </mxCell>
        <mxCell id="l-kLitbtD4qd4CKumxQw-89" value="&lt;div style=&quot;padding-top: 0px; padding-right: 2px; padding-left: 2px;&quot;&gt;&lt;strong style=&quot;color: rgb(59, 59, 59); font-family: -apple-system, BlinkMacSystemFont, &amp;quot;Segoe WPC&amp;quot;, &amp;quot;Segoe UI&amp;quot;, system-ui, Ubuntu, &amp;quot;Droid Sans&amp;quot;, sans-serif; text-align: left;&quot;&gt;Thu tiền hộ (COD)&lt;/strong&gt;&lt;/div&gt;" style="shape=step;perimeter=stepPerimeter;fontFamily=Helvetica;fontSize=14;fixedSize=1;size=17;fontStyle=1;strokeWidth=2;spacingTop=0;points=[];fillColor=#ffe6cc;strokeColor=#d79b00;html=1;whiteSpace=wrap;spacing=10;align=center;" vertex="1" parent="l-kLitbtD4qd4CKumxQw-84">
          <mxGeometry x="362" y="30" width="98" height="83" as="geometry" />
        </mxCell>
        <mxCell id="l-kLitbtD4qd4CKumxQw-90" value="&lt;div style=&quot;padding-top: 0px; padding-right: 2px; padding-left: 2px;&quot;&gt;&lt;strong style=&quot;color: rgb(59, 59, 59); font-family: -apple-system, BlinkMacSystemFont, &amp;quot;Segoe WPC&amp;quot;, &amp;quot;Segoe UI&amp;quot;, system-ui, Ubuntu, &amp;quot;Droid Sans&amp;quot;, sans-serif; text-align: left;&quot;&gt;Cập nhật trạng&amp;nbsp;&lt;/strong&gt;&lt;/div&gt;&lt;div style=&quot;padding-top: 0px; padding-right: 2px; padding-left: 2px;&quot;&gt;&lt;strong style=&quot;color: rgb(59, 59, 59); font-family: -apple-system, BlinkMacSystemFont, &amp;quot;Segoe WPC&amp;quot;, &amp;quot;Segoe UI&amp;quot;, system-ui, Ubuntu, &amp;quot;Droid Sans&amp;quot;, sans-serif; text-align: left;&quot;&gt;thái giao hàng&lt;/strong&gt;&lt;/div&gt;" style="shape=step;perimeter=stepPerimeter;fontFamily=Helvetica;fontSize=14;fixedSize=1;size=17;fontStyle=1;strokeWidth=2;spacingTop=0;points=[];fillColor=#fff2cc;strokeColor=#d6b656;html=1;whiteSpace=wrap;spacing=10;align=center;" vertex="1" parent="l-kLitbtD4qd4CKumxQw-84">
          <mxGeometry x="450" y="30" width="98" height="83" as="geometry" />
        </mxCell>
        <mxCell id="l-kLitbtD4qd4CKumxQw-92" value="Chăm sóc khách hàng" style="swimlane;fontStyle=2;childLayout=stackLayout;horizontal=1;startSize=20;horizontalStack=1;resizeParent=1;resizeParentMax=0;resizeLast=0;collapsible=0;marginBottom=0;swimlaneFillColor=none;fontFamily=Helvetica;fontSize=14;points=[];verticalAlign=middle;stackBorder=10;stackSpacing=-10;resizable=1;swimlaneLine=1;flipH=0;flipV=0;glass=0;" vertex="1" parent="1">
          <mxGeometry x="38" y="364" width="734" height="123" as="geometry" />
        </mxCell>
        <mxCell id="l-kLitbtD4qd4CKumxQw-93" value="&lt;div style=&quot;padding-top: 0px; padding-right: 2px; padding-left: 2px;&quot;&gt;&lt;strong style=&quot;color: rgb(59, 59, 59); font-family: -apple-system, BlinkMacSystemFont, &amp;quot;Segoe WPC&amp;quot;, &amp;quot;Segoe UI&amp;quot;, system-ui, Ubuntu, &amp;quot;Droid Sans&amp;quot;, sans-serif; text-align: left;&quot;&gt;Tiếp nhận yêu cầu&lt;/strong&gt;&lt;/div&gt;" style="shape=step;perimeter=stepPerimeter;fontFamily=Helvetica;fontSize=14;fixedSize=1;size=17;fontStyle=1;strokeWidth=2;spacingTop=0;points=[];fillColor=#FFFFFF;strokeColor=#000000;html=1;whiteSpace=wrap;spacing=10;align=center;" vertex="1" parent="l-kLitbtD4qd4CKumxQw-92">
          <mxGeometry x="10" y="30" width="98" height="83" as="geometry" />
        </mxCell>
        <mxCell id="l-kLitbtD4qd4CKumxQw-94" value="&lt;div style=&quot;padding-top: 0px; padding-right: 2px; padding-left: 2px;&quot;&gt;&lt;strong style=&quot;color: rgb(59, 59, 59); font-family: -apple-system, BlinkMacSystemFont, &amp;quot;Segoe WPC&amp;quot;, &amp;quot;Segoe UI&amp;quot;, system-ui, Ubuntu, &amp;quot;Droid Sans&amp;quot;, sans-serif; text-align: left;&quot;&gt;Xác minh thông tin&lt;/strong&gt;&lt;/div&gt;" style="shape=step;perimeter=stepPerimeter;fontFamily=Helvetica;fontSize=14;fixedSize=1;size=17;fontStyle=1;strokeWidth=2;spacingTop=0;points=[];fillColor=#f5f5f5;strokeColor=#666666;html=1;whiteSpace=wrap;spacing=10;align=center;fontColor=#333333;" vertex="1" parent="l-kLitbtD4qd4CKumxQw-92">
          <mxGeometry x="98" y="30" width="98" height="83" as="geometry" />
        </mxCell>
        <mxCell id="l-kLitbtD4qd4CKumxQw-95" value="&lt;div style=&quot;padding-top: 0px; padding-right: 2px; padding-left: 2px;&quot;&gt;&lt;strong style=&quot;color: rgb(59, 59, 59); font-family: -apple-system, BlinkMacSystemFont, &amp;quot;Segoe WPC&amp;quot;, &amp;quot;Segoe UI&amp;quot;, system-ui, Ubuntu, &amp;quot;Droid Sans&amp;quot;, sans-serif; text-align: left;&quot;&gt;Liên hệ khách hàng&lt;/strong&gt;&lt;/div&gt;" style="shape=step;perimeter=stepPerimeter;fontFamily=Helvetica;fontSize=14;fixedSize=1;size=17;fontStyle=1;strokeWidth=2;spacingTop=0;points=[];fillColor=#dae8fc;strokeColor=#6c8ebf;html=1;whiteSpace=wrap;spacing=10;align=center;" vertex="1" parent="l-kLitbtD4qd4CKumxQw-92">
          <mxGeometry x="186" y="30" width="98" height="83" as="geometry" />
        </mxCell>
        <mxCell id="l-kLitbtD4qd4CKumxQw-96" value="&lt;div style=&quot;padding-top: 0px; padding-right: 2px; padding-left: 2px;&quot;&gt;&lt;strong style=&quot;color: rgb(59, 59, 59); font-family: -apple-system, BlinkMacSystemFont, &amp;quot;Segoe WPC&amp;quot;, &amp;quot;Segoe UI&amp;quot;, system-ui, Ubuntu, &amp;quot;Droid Sans&amp;quot;, sans-serif; text-align: left;&quot;&gt;Xử lý khiếu nại&lt;/strong&gt;&lt;/div&gt;" style="shape=step;perimeter=stepPerimeter;fontFamily=Helvetica;fontSize=14;fixedSize=1;size=17;fontStyle=1;strokeWidth=2;spacingTop=0;points=[];fillColor=#d5e8d4;strokeColor=#82b366;html=1;whiteSpace=wrap;spacing=10;align=center;" vertex="1" parent="l-kLitbtD4qd4CKumxQw-92">
          <mxGeometry x="274" y="30" width="98" height="83" as="geometry" />
        </mxCell>
        <mxCell id="l-kLitbtD4qd4CKumxQw-97" value="&lt;div style=&quot;padding-top: 0px; padding-right: 2px; padding-left: 2px;&quot;&gt;&lt;strong style=&quot;color: rgb(59, 59, 59); font-family: -apple-system, BlinkMacSystemFont, &amp;quot;Segoe WPC&amp;quot;, &amp;quot;Segoe UI&amp;quot;, system-ui, Ubuntu, &amp;quot;Droid Sans&amp;quot;, sans-serif; text-align: left;&quot;&gt;Cập nhật giải pháp&lt;/strong&gt;&lt;/div&gt;" style="shape=step;perimeter=stepPerimeter;fontFamily=Helvetica;fontSize=14;fixedSize=1;size=17;fontStyle=1;strokeWidth=2;spacingTop=0;points=[];fillColor=#ffe6cc;strokeColor=#d79b00;html=1;whiteSpace=wrap;spacing=10;align=center;" vertex="1" parent="l-kLitbtD4qd4CKumxQw-92">
          <mxGeometry x="362" y="30" width="98" height="83" as="geometry" />
        </mxCell>
        <mxCell id="l-kLitbtD4qd4CKumxQw-98" value="&lt;div style=&quot;padding-top: 0px; padding-right: 2px; padding-left: 2px;&quot;&gt;&lt;strong style=&quot;color: rgb(59, 59, 59); font-family: -apple-system, BlinkMacSystemFont, &amp;quot;Segoe WPC&amp;quot;, &amp;quot;Segoe UI&amp;quot;, system-ui, Ubuntu, &amp;quot;Droid Sans&amp;quot;, sans-serif; text-align: left;&quot;&gt;Thu thập phản hồi&lt;/strong&gt;&lt;/div&gt;" style="shape=step;perimeter=stepPerimeter;fontFamily=Helvetica;fontSize=14;fixedSize=1;size=17;fontStyle=1;strokeWidth=2;spacingTop=0;points=[];fillColor=#fff2cc;strokeColor=#d6b656;html=1;whiteSpace=wrap;spacing=10;align=center;" vertex="1" parent="l-kLitbtD4qd4CKumxQw-92">
          <mxGeometry x="450" y="30" width="98" height="83" as="geometry" />
        </mxCell>
        <mxCell id="l-kLitbtD4qd4CKumxQw-99" value="&lt;div style=&quot;padding-top: 0px; padding-right: 2px; padding-left: 2px;&quot;&gt;&lt;strong style=&quot;color: rgb(59, 59, 59); font-family: -apple-system, BlinkMacSystemFont, &amp;quot;Segoe WPC&amp;quot;, &amp;quot;Segoe UI&amp;quot;, system-ui, Ubuntu, &amp;quot;Droid Sans&amp;quot;, sans-serif; text-align: left;&quot;&gt;Lưu&amp;nbsp;&lt;/strong&gt;&lt;/div&gt;&lt;div style=&quot;padding-top: 0px; padding-right: 2px; padding-left: 2px;&quot;&gt;&lt;strong style=&quot;color: rgb(59, 59, 59); font-family: -apple-system, BlinkMacSystemFont, &amp;quot;Segoe WPC&amp;quot;, &amp;quot;Segoe UI&amp;quot;, system-ui, Ubuntu, &amp;quot;Droid Sans&amp;quot;, sans-serif; text-align: left;&quot;&gt;trữ&amp;nbsp;&lt;/strong&gt;&lt;/div&gt;&lt;div style=&quot;padding-top: 0px; padding-right: 2px; padding-left: 2px;&quot;&gt;&lt;strong style=&quot;color: rgb(59, 59, 59); font-family: -apple-system, BlinkMacSystemFont, &amp;quot;Segoe WPC&amp;quot;, &amp;quot;Segoe UI&amp;quot;, system-ui, Ubuntu, &amp;quot;Droid Sans&amp;quot;, sans-serif; text-align: left;&quot;&gt;dữ liệu&lt;/strong&gt;&lt;/div&gt;" style="shape=step;perimeter=stepPerimeter;fontFamily=Helvetica;fontSize=14;fixedSize=1;size=17;fontStyle=1;strokeWidth=2;spacingTop=0;points=[];fillColor=#f8cecc;strokeColor=#b85450;html=1;whiteSpace=wrap;spacing=10;align=center;" vertex="1" parent="l-kLitbtD4qd4CKumxQw-92">
          <mxGeometry x="538" y="30" width="98" height="83" as="geometry" />
        </mxCell>
        <mxCell id="l-kLitbtD4qd4CKumxQw-100" value="&lt;div style=&quot;padding-top: 0px; padding-right: 2px; padding-left: 2px;&quot;&gt;&lt;strong style=&quot;color: rgb(59, 59, 59); font-family: -apple-system, BlinkMacSystemFont, &amp;quot;Segoe WPC&amp;quot;, &amp;quot;Segoe UI&amp;quot;, system-ui, Ubuntu, &amp;quot;Droid Sans&amp;quot;, sans-serif; text-align: left;&quot;&gt;Cải tiến dịch vụ&lt;/strong&gt;&lt;/div&gt;" style="shape=step;perimeter=stepPerimeter;fontFamily=Helvetica;fontSize=14;fixedSize=1;size=17;fontStyle=1;strokeWidth=2;spacingTop=0;points=[];fillColor=#e1d5e7;strokeColor=#9673a6;html=1;whiteSpace=wrap;spacing=10;align=center;" vertex="1" parent="l-kLitbtD4qd4CKumxQw-92">
          <mxGeometry x="626" y="30" width="98" height="83" as="geometry" />
        </mxCell>
        <mxCell id="l-kLitbtD4qd4CKumxQw-102" value="&lt;div style=&quot;color: rgb(59, 59, 59); background-color: rgb(255, 255, 255); font-family: Consolas, &amp;quot;Courier New&amp;quot;, monospace; font-weight: normal; line-height: 19px; white-space: pre;&quot;&gt;&lt;div style=&quot;line-height: 19px;&quot;&gt;&lt;span style=&quot;color: #800000;font-weight: bold;&quot;&gt;Kiến trúc Quy trình Hỗ trợ&lt;/span&gt;&lt;/div&gt;&lt;/div&gt;" style="text;html=1;align=center;verticalAlign=middle;whiteSpace=wrap;rounded=0;fontFamily=Helvetica;fontSize=20;fontColor=default;fontStyle=1;" vertex="1" parent="1">
          <mxGeometry x="908" y="30" width="292" height="30" as="geometry" />
        </mxCell>
        <mxCell id="l-kLitbtD4qd4CKumxQw-103" value="Quản lý kho bãi và phân loại" style="swimlane;fontStyle=2;childLayout=stackLayout;horizontal=1;startSize=20;horizontalStack=1;resizeParent=1;resizeParentMax=0;resizeLast=0;collapsible=0;marginBottom=0;swimlaneFillColor=none;fontFamily=Helvetica;fontSize=14;points=[];verticalAlign=middle;stackBorder=10;stackSpacing=-10;resizable=1;swimlaneLine=1;flipH=0;flipV=0;glass=0;" vertex="1" parent="1">
          <mxGeometry x="38" y="516" width="646" height="123" as="geometry" />
        </mxCell>
        <mxCell id="l-kLitbtD4qd4CKumxQw-104" value="&lt;div style=&quot;padding-top: 0px; padding-right: 2px; padding-left: 2px;&quot;&gt;&lt;strong style=&quot;color: rgb(59, 59, 59); font-family: -apple-system, BlinkMacSystemFont, &amp;quot;Segoe WPC&amp;quot;, &amp;quot;Segoe UI&amp;quot;, system-ui, Ubuntu, &amp;quot;Droid Sans&amp;quot;, sans-serif; text-align: left;&quot;&gt;Tiếp nhận hàng hóa&lt;/strong&gt;&lt;/div&gt;" style="shape=step;perimeter=stepPerimeter;fontFamily=Helvetica;fontSize=14;fixedSize=1;size=17;fontStyle=1;strokeWidth=2;spacingTop=0;points=[];fillColor=#FFFFFF;strokeColor=#000000;html=1;whiteSpace=wrap;spacing=10;align=center;" vertex="1" parent="l-kLitbtD4qd4CKumxQw-103">
          <mxGeometry x="10" y="30" width="98" height="83" as="geometry" />
        </mxCell>
        <mxCell id="l-kLitbtD4qd4CKumxQw-105" value="&lt;div style=&quot;padding-top: 0px; padding-right: 2px; padding-left: 2px;&quot;&gt;&lt;strong style=&quot;color: rgb(59, 59, 59); font-family: -apple-system, BlinkMacSystemFont, &amp;quot;Segoe WPC&amp;quot;, &amp;quot;Segoe UI&amp;quot;, system-ui, Ubuntu, &amp;quot;Droid Sans&amp;quot;, sans-serif; text-align: left;&quot;&gt;Kiểm tra hàng hóa&lt;/strong&gt;&lt;/div&gt;" style="shape=step;perimeter=stepPerimeter;fontFamily=Helvetica;fontSize=14;fixedSize=1;size=17;fontStyle=1;strokeWidth=2;spacingTop=0;points=[];fillColor=#f5f5f5;strokeColor=#666666;html=1;whiteSpace=wrap;spacing=10;align=center;fontColor=#333333;" vertex="1" parent="l-kLitbtD4qd4CKumxQw-103">
          <mxGeometry x="98" y="30" width="98" height="83" as="geometry" />
        </mxCell>
        <mxCell id="l-kLitbtD4qd4CKumxQw-106" value="&lt;div style=&quot;padding-top: 0px; padding-right: 2px; padding-left: 2px;&quot;&gt;&lt;strong style=&quot;color: rgb(59, 59, 59); font-family: -apple-system, BlinkMacSystemFont, &amp;quot;Segoe WPC&amp;quot;, &amp;quot;Segoe UI&amp;quot;, system-ui, Ubuntu, &amp;quot;Droid Sans&amp;quot;, sans-serif; text-align: left;&quot;&gt;Lưu trữ hàng hóa&lt;/strong&gt;&lt;/div&gt;" style="shape=step;perimeter=stepPerimeter;fontFamily=Helvetica;fontSize=14;fixedSize=1;size=17;fontStyle=1;strokeWidth=2;spacingTop=0;points=[];fillColor=#dae8fc;strokeColor=#6c8ebf;html=1;whiteSpace=wrap;spacing=10;align=center;" vertex="1" parent="l-kLitbtD4qd4CKumxQw-103">
          <mxGeometry x="186" y="30" width="98" height="83" as="geometry" />
        </mxCell>
        <mxCell id="l-kLitbtD4qd4CKumxQw-107" value="&lt;div style=&quot;padding-top: 0px; padding-right: 2px; padding-left: 2px;&quot;&gt;&lt;strong style=&quot;color: rgb(59, 59, 59); font-family: -apple-system, BlinkMacSystemFont, &amp;quot;Segoe WPC&amp;quot;, &amp;quot;Segoe UI&amp;quot;, system-ui, Ubuntu, &amp;quot;Droid Sans&amp;quot;, sans-serif; text-align: left;&quot;&gt;Phân loại tự động&lt;/strong&gt;&lt;/div&gt;" style="shape=step;perimeter=stepPerimeter;fontFamily=Helvetica;fontSize=14;fixedSize=1;size=17;fontStyle=1;strokeWidth=2;spacingTop=0;points=[];fillColor=#d5e8d4;strokeColor=#82b366;html=1;whiteSpace=wrap;spacing=10;align=center;" vertex="1" parent="l-kLitbtD4qd4CKumxQw-103">
          <mxGeometry x="274" y="30" width="98" height="83" as="geometry" />
        </mxCell>
        <mxCell id="l-kLitbtD4qd4CKumxQw-108" value="&lt;div style=&quot;padding-top: 0px; padding-right: 2px; padding-left: 2px;&quot;&gt;&lt;strong style=&quot;color: rgb(59, 59, 59); font-family: -apple-system, BlinkMacSystemFont, &amp;quot;Segoe WPC&amp;quot;, &amp;quot;Segoe UI&amp;quot;, system-ui, Ubuntu, &amp;quot;Droid Sans&amp;quot;, sans-serif; text-align: left;&quot;&gt;Đóng gói hàng hóa&lt;/strong&gt;&lt;/div&gt;" style="shape=step;perimeter=stepPerimeter;fontFamily=Helvetica;fontSize=14;fixedSize=1;size=17;fontStyle=1;strokeWidth=2;spacingTop=0;points=[];fillColor=#ffe6cc;strokeColor=#d79b00;html=1;whiteSpace=wrap;spacing=10;align=center;" vertex="1" parent="l-kLitbtD4qd4CKumxQw-103">
          <mxGeometry x="362" y="30" width="98" height="83" as="geometry" />
        </mxCell>
        <mxCell id="l-kLitbtD4qd4CKumxQw-109" value="&lt;div style=&quot;padding-top: 0px; padding-right: 2px; padding-left: 2px;&quot;&gt;&lt;strong style=&quot;color: rgb(59, 59, 59); font-family: -apple-system, BlinkMacSystemFont, &amp;quot;Segoe WPC&amp;quot;, &amp;quot;Segoe UI&amp;quot;, system-ui, Ubuntu, &amp;quot;Droid Sans&amp;quot;, sans-serif; text-align: left;&quot;&gt;Chuyển giao cho bưu tá&lt;/strong&gt;&lt;/div&gt;" style="shape=step;perimeter=stepPerimeter;fontFamily=Helvetica;fontSize=14;fixedSize=1;size=17;fontStyle=1;strokeWidth=2;spacingTop=0;points=[];fillColor=#fff2cc;strokeColor=#d6b656;html=1;whiteSpace=wrap;spacing=10;align=center;" vertex="1" parent="l-kLitbtD4qd4CKumxQw-103">
          <mxGeometry x="450" y="30" width="98" height="83" as="geometry" />
        </mxCell>
        <mxCell id="l-kLitbtD4qd4CKumxQw-110" value="&lt;div style=&quot;padding-top: 0px; padding-right: 2px; padding-left: 2px;&quot;&gt;&lt;strong style=&quot;color: rgb(59, 59, 59); font-family: -apple-system, BlinkMacSystemFont, &amp;quot;Segoe WPC&amp;quot;, &amp;quot;Segoe UI&amp;quot;, system-ui, Ubuntu, &amp;quot;Droid Sans&amp;quot;, sans-serif; text-align: left;&quot;&gt;Báo cáo kho bãi&lt;/strong&gt;&lt;/div&gt;" style="shape=step;perimeter=stepPerimeter;fontFamily=Helvetica;fontSize=14;fixedSize=1;size=17;fontStyle=1;strokeWidth=2;spacingTop=0;points=[];fillColor=#f8cecc;strokeColor=#b85450;html=1;whiteSpace=wrap;spacing=10;align=center;" vertex="1" parent="l-kLitbtD4qd4CKumxQw-103">
          <mxGeometry x="538" y="30" width="98" height="83" as="geometry" />
        </mxCell>
        <mxCell id="l-kLitbtD4qd4CKumxQw-120" value="Vận hành giao hàng siêu tốc" style="swimlane;fontStyle=2;childLayout=stackLayout;horizontal=1;startSize=20;horizontalStack=1;resizeParent=1;resizeParentMax=0;resizeLast=0;collapsible=0;marginBottom=0;swimlaneFillColor=none;fontFamily=Helvetica;fontSize=14;points=[];verticalAlign=middle;stackBorder=10;stackSpacing=-10;resizable=1;swimlaneLine=1;flipH=0;flipV=0;glass=0;" vertex="1" parent="1">
          <mxGeometry x="38" y="665" width="558" height="123" as="geometry" />
        </mxCell>
        <mxCell id="l-kLitbtD4qd4CKumxQw-121" value="&lt;div style=&quot;padding-top: 0px; padding-right: 2px; padding-left: 2px;&quot;&gt;&lt;strong style=&quot;color: rgb(59, 59, 59); font-family: -apple-system, BlinkMacSystemFont, &amp;quot;Segoe WPC&amp;quot;, &amp;quot;Segoe UI&amp;quot;, system-ui, Ubuntu, &amp;quot;Droid Sans&amp;quot;, sans-serif; text-align: left;&quot;&gt;Tiếp nhận đơn siêu tốc&lt;/strong&gt;&lt;/div&gt;" style="shape=step;perimeter=stepPerimeter;fontFamily=Helvetica;fontSize=14;fixedSize=1;size=17;fontStyle=1;strokeWidth=2;spacingTop=0;points=[];fillColor=#FFFFFF;strokeColor=#000000;html=1;whiteSpace=wrap;spacing=10;align=center;" vertex="1" parent="l-kLitbtD4qd4CKumxQw-120">
          <mxGeometry x="10" y="30" width="98" height="83" as="geometry" />
        </mxCell>
        <mxCell id="l-kLitbtD4qd4CKumxQw-122" value="&lt;div style=&quot;padding-top: 0px; padding-right: 2px; padding-left: 2px;&quot;&gt;&lt;strong style=&quot;color: rgb(59, 59, 59); font-family: -apple-system, BlinkMacSystemFont, &amp;quot;Segoe WPC&amp;quot;, &amp;quot;Segoe UI&amp;quot;, system-ui, Ubuntu, &amp;quot;Droid Sans&amp;quot;, sans-serif; text-align: left;&quot;&gt;Ưu tiên phân loại&lt;/strong&gt;&lt;/div&gt;" style="shape=step;perimeter=stepPerimeter;fontFamily=Helvetica;fontSize=14;fixedSize=1;size=17;fontStyle=1;strokeWidth=2;spacingTop=0;points=[];fillColor=#f5f5f5;strokeColor=#666666;html=1;whiteSpace=wrap;spacing=10;align=center;fontColor=#333333;" vertex="1" parent="l-kLitbtD4qd4CKumxQw-120">
          <mxGeometry x="98" y="30" width="98" height="83" as="geometry" />
        </mxCell>
        <mxCell id="l-kLitbtD4qd4CKumxQw-123" value="&lt;div style=&quot;padding-top: 0px; padding-right: 2px; padding-left: 2px;&quot;&gt;&lt;strong style=&quot;color: rgb(59, 59, 59); font-family: -apple-system, BlinkMacSystemFont, &amp;quot;Segoe WPC&amp;quot;, &amp;quot;Segoe UI&amp;quot;, system-ui, Ubuntu, &amp;quot;Droid Sans&amp;quot;, sans-serif; text-align: left;&quot;&gt;Phân công bưu&amp;nbsp;&lt;/strong&gt;&lt;/div&gt;&lt;div style=&quot;padding-top: 0px; padding-right: 2px; padding-left: 2px;&quot;&gt;&lt;strong style=&quot;color: rgb(59, 59, 59); font-family: -apple-system, BlinkMacSystemFont, &amp;quot;Segoe WPC&amp;quot;, &amp;quot;Segoe UI&amp;quot;, system-ui, Ubuntu, &amp;quot;Droid Sans&amp;quot;, sans-serif; text-align: left;&quot;&gt;tá gần nhất&lt;/strong&gt;&lt;/div&gt;" style="shape=step;perimeter=stepPerimeter;fontFamily=Helvetica;fontSize=14;fixedSize=1;size=17;fontStyle=1;strokeWidth=2;spacingTop=0;points=[];fillColor=#dae8fc;strokeColor=#6c8ebf;html=1;whiteSpace=wrap;spacing=10;align=center;" vertex="1" parent="l-kLitbtD4qd4CKumxQw-120">
          <mxGeometry x="186" y="30" width="98" height="83" as="geometry" />
        </mxCell>
        <mxCell id="l-kLitbtD4qd4CKumxQw-124" value="&lt;div style=&quot;padding-top: 0px; padding-right: 2px; padding-left: 2px;&quot;&gt;&lt;strong style=&quot;color: rgb(59, 59, 59); font-family: -apple-system, BlinkMacSystemFont, &amp;quot;Segoe WPC&amp;quot;, &amp;quot;Segoe UI&amp;quot;, system-ui, Ubuntu, &amp;quot;Droid Sans&amp;quot;, sans-serif; text-align: left;&quot;&gt;Thực&lt;/strong&gt;&lt;/div&gt;&lt;div style=&quot;padding-top: 0px; padding-right: 2px; padding-left: 2px;&quot;&gt;&lt;strong style=&quot;color: rgb(59, 59, 59); font-family: -apple-system, BlinkMacSystemFont, &amp;quot;Segoe WPC&amp;quot;, &amp;quot;Segoe UI&amp;quot;, system-ui, Ubuntu, &amp;quot;Droid Sans&amp;quot;, sans-serif; text-align: left;&quot;&gt;&amp;nbsp;hiện giao hàng&lt;/strong&gt;&lt;/div&gt;" style="shape=step;perimeter=stepPerimeter;fontFamily=Helvetica;fontSize=14;fixedSize=1;size=17;fontStyle=1;strokeWidth=2;spacingTop=0;points=[];fillColor=#d5e8d4;strokeColor=#82b366;html=1;whiteSpace=wrap;spacing=10;align=center;" vertex="1" parent="l-kLitbtD4qd4CKumxQw-120">
          <mxGeometry x="274" y="30" width="98" height="83" as="geometry" />
        </mxCell>
        <mxCell id="l-kLitbtD4qd4CKumxQw-125" value="&lt;div style=&quot;padding-top: 0px; padding-right: 2px; padding-left: 2px;&quot;&gt;&lt;strong style=&quot;color: rgb(59, 59, 59); font-family: -apple-system, BlinkMacSystemFont, &amp;quot;Segoe WPC&amp;quot;, &amp;quot;Segoe UI&amp;quot;, system-ui, Ubuntu, &amp;quot;Droid Sans&amp;quot;, sans-serif; text-align: left;&quot;&gt;Cập nhật trạng thái thời gian thực&lt;/strong&gt;&lt;/div&gt;" style="shape=step;perimeter=stepPerimeter;fontFamily=Helvetica;fontSize=14;fixedSize=1;size=17;fontStyle=1;strokeWidth=2;spacingTop=0;points=[];fillColor=#ffe6cc;strokeColor=#d79b00;html=1;whiteSpace=wrap;spacing=10;align=center;" vertex="1" parent="l-kLitbtD4qd4CKumxQw-120">
          <mxGeometry x="362" y="30" width="98" height="83" as="geometry" />
        </mxCell>
        <mxCell id="l-kLitbtD4qd4CKumxQw-126" value="&lt;div style=&quot;padding-top: 0px; padding-right: 2px; padding-left: 2px;&quot;&gt;&lt;strong style=&quot;color: rgb(59, 59, 59); font-family: -apple-system, BlinkMacSystemFont, &amp;quot;Segoe WPC&amp;quot;, &amp;quot;Segoe UI&amp;quot;, system-ui, Ubuntu, &amp;quot;Droid Sans&amp;quot;, sans-serif; text-align: left;&quot;&gt;Đánh giá hiệu quả&lt;/strong&gt;&lt;/div&gt;" style="shape=step;perimeter=stepPerimeter;fontFamily=Helvetica;fontSize=14;fixedSize=1;size=17;fontStyle=1;strokeWidth=2;spacingTop=0;points=[];fillColor=#fff2cc;strokeColor=#d6b656;html=1;whiteSpace=wrap;spacing=10;align=center;" vertex="1" parent="l-kLitbtD4qd4CKumxQw-120">
          <mxGeometry x="450" y="30" width="98" height="83" as="geometry" />
        </mxCell>
        <mxCell id="l-kLitbtD4qd4CKumxQw-129" value="Kiểm soát chất lượng giao hàng" style="swimlane;fontStyle=2;childLayout=stackLayout;horizontal=1;startSize=20;horizontalStack=1;resizeParent=1;resizeParentMax=0;resizeLast=0;collapsible=0;marginBottom=0;swimlaneFillColor=none;fontFamily=Helvetica;fontSize=14;points=[];verticalAlign=middle;stackBorder=10;stackSpacing=-10;resizable=1;swimlaneLine=1;flipH=0;flipV=0;glass=0;" vertex="1" parent="1">
          <mxGeometry x="38" y="810" width="734" height="123" as="geometry" />
        </mxCell>
        <mxCell id="l-kLitbtD4qd4CKumxQw-130" value="&lt;div style=&quot;padding-top: 0px; padding-right: 2px; padding-left: 2px;&quot;&gt;&lt;strong style=&quot;color: rgb(59, 59, 59); font-family: -apple-system, BlinkMacSystemFont, &amp;quot;Segoe WPC&amp;quot;, &amp;quot;Segoe UI&amp;quot;, system-ui, Ubuntu, &amp;quot;Droid Sans&amp;quot;, sans-serif; text-align: left;&quot;&gt;Xác định tiêu chí chất lượng&lt;/strong&gt;&lt;/div&gt;" style="shape=step;perimeter=stepPerimeter;fontFamily=Helvetica;fontSize=14;fixedSize=1;size=17;fontStyle=1;strokeWidth=2;spacingTop=0;points=[];fillColor=#FFFFFF;strokeColor=#000000;html=1;whiteSpace=wrap;spacing=10;align=center;" vertex="1" parent="l-kLitbtD4qd4CKumxQw-129">
          <mxGeometry x="10" y="30" width="98" height="83" as="geometry" />
        </mxCell>
        <mxCell id="l-kLitbtD4qd4CKumxQw-131" value="&lt;div style=&quot;padding-top: 0px; padding-right: 2px; padding-left: 2px;&quot;&gt;&lt;strong style=&quot;color: rgb(59, 59, 59); font-family: -apple-system, BlinkMacSystemFont, &amp;quot;Segoe WPC&amp;quot;, &amp;quot;Segoe UI&amp;quot;, system-ui, Ubuntu, &amp;quot;Droid Sans&amp;quot;, sans-serif; text-align: left;&quot;&gt;Thu thập dữ liệu giao hàng&lt;/strong&gt;&lt;/div&gt;" style="shape=step;perimeter=stepPerimeter;fontFamily=Helvetica;fontSize=14;fixedSize=1;size=17;fontStyle=1;strokeWidth=2;spacingTop=0;points=[];fillColor=#f5f5f5;strokeColor=#666666;html=1;whiteSpace=wrap;spacing=10;align=center;fontColor=#333333;" vertex="1" parent="l-kLitbtD4qd4CKumxQw-129">
          <mxGeometry x="98" y="30" width="98" height="83" as="geometry" />
        </mxCell>
        <mxCell id="l-kLitbtD4qd4CKumxQw-132" value="&lt;div style=&quot;padding-top: 0px; padding-right: 2px; padding-left: 2px;&quot;&gt;&lt;strong style=&quot;color: rgb(59, 59, 59); font-family: -apple-system, BlinkMacSystemFont, &amp;quot;Segoe WPC&amp;quot;, &amp;quot;Segoe UI&amp;quot;, system-ui, Ubuntu, &amp;quot;Droid Sans&amp;quot;, sans-serif; text-align: left;&quot;&gt;Phân tích hiệu suất&lt;/strong&gt;&lt;/div&gt;" style="shape=step;perimeter=stepPerimeter;fontFamily=Helvetica;fontSize=14;fixedSize=1;size=17;fontStyle=1;strokeWidth=2;spacingTop=0;points=[];fillColor=#dae8fc;strokeColor=#6c8ebf;html=1;whiteSpace=wrap;spacing=10;align=center;" vertex="1" parent="l-kLitbtD4qd4CKumxQw-129">
          <mxGeometry x="186" y="30" width="98" height="83" as="geometry" />
        </mxCell>
        <mxCell id="l-kLitbtD4qd4CKumxQw-133" value="&lt;div style=&quot;padding-top: 0px; padding-right: 2px; padding-left: 2px;&quot;&gt;&lt;strong style=&quot;color: rgb(59, 59, 59); font-family: -apple-system, BlinkMacSystemFont, &amp;quot;Segoe WPC&amp;quot;, &amp;quot;Segoe UI&amp;quot;, system-ui, Ubuntu, &amp;quot;Droid Sans&amp;quot;, sans-serif; text-align: left;&quot;&gt;Xử lý sai sót&lt;/strong&gt;&lt;/div&gt;" style="shape=step;perimeter=stepPerimeter;fontFamily=Helvetica;fontSize=14;fixedSize=1;size=17;fontStyle=1;strokeWidth=2;spacingTop=0;points=[];fillColor=#d5e8d4;strokeColor=#82b366;html=1;whiteSpace=wrap;spacing=10;align=center;" vertex="1" parent="l-kLitbtD4qd4CKumxQw-129">
          <mxGeometry x="274" y="30" width="98" height="83" as="geometry" />
        </mxCell>
        <mxCell id="l-kLitbtD4qd4CKumxQw-134" value="&lt;div style=&quot;padding-top: 0px; padding-right: 2px; padding-left: 2px;&quot;&gt;&lt;strong style=&quot;color: rgb(59, 59, 59); font-family: -apple-system, BlinkMacSystemFont, &amp;quot;Segoe WPC&amp;quot;, &amp;quot;Segoe UI&amp;quot;, system-ui, Ubuntu, &amp;quot;Droid Sans&amp;quot;, sans-serif; text-align: left;&quot;&gt;Đền bù theo chính sách&lt;/strong&gt;&lt;/div&gt;" style="shape=step;perimeter=stepPerimeter;fontFamily=Helvetica;fontSize=14;fixedSize=1;size=17;fontStyle=1;strokeWidth=2;spacingTop=0;points=[];fillColor=#ffe6cc;strokeColor=#d79b00;html=1;whiteSpace=wrap;spacing=10;align=center;" vertex="1" parent="l-kLitbtD4qd4CKumxQw-129">
          <mxGeometry x="362" y="30" width="98" height="83" as="geometry" />
        </mxCell>
        <mxCell id="l-kLitbtD4qd4CKumxQw-135" value="&lt;div style=&quot;padding-top: 0px; padding-right: 2px; padding-left: 2px;&quot;&gt;&lt;strong style=&quot;color: rgb(59, 59, 59); font-family: -apple-system, BlinkMacSystemFont, &amp;quot;Segoe WPC&amp;quot;, &amp;quot;Segoe UI&amp;quot;, system-ui, Ubuntu, &amp;quot;Droid Sans&amp;quot;, sans-serif; text-align: left;&quot;&gt;Đào tạo cải tiến&lt;/strong&gt;&lt;/div&gt;" style="shape=step;perimeter=stepPerimeter;fontFamily=Helvetica;fontSize=14;fixedSize=1;size=17;fontStyle=1;strokeWidth=2;spacingTop=0;points=[];fillColor=#fff2cc;strokeColor=#d6b656;html=1;whiteSpace=wrap;spacing=10;align=center;" vertex="1" parent="l-kLitbtD4qd4CKumxQw-129">
          <mxGeometry x="450" y="30" width="98" height="83" as="geometry" />
        </mxCell>
        <mxCell id="l-kLitbtD4qd4CKumxQw-136" value="&lt;div style=&quot;padding-top: 0px; padding-right: 2px; padding-left: 2px;&quot;&gt;&lt;strong style=&quot;color: rgb(59, 59, 59); font-family: -apple-system, BlinkMacSystemFont, &amp;quot;Segoe WPC&amp;quot;, &amp;quot;Segoe UI&amp;quot;, system-ui, Ubuntu, &amp;quot;Droid Sans&amp;quot;, sans-serif; text-align: left;&quot;&gt;Lập báo cáo chất lượng&lt;/strong&gt;&lt;/div&gt;" style="shape=step;perimeter=stepPerimeter;fontFamily=Helvetica;fontSize=14;fixedSize=1;size=17;fontStyle=1;strokeWidth=2;spacingTop=0;points=[];fillColor=#f8cecc;strokeColor=#b85450;html=1;whiteSpace=wrap;spacing=10;align=center;" vertex="1" parent="l-kLitbtD4qd4CKumxQw-129">
          <mxGeometry x="538" y="30" width="98" height="83" as="geometry" />
        </mxCell>
        <mxCell id="l-kLitbtD4qd4CKumxQw-137" value="&lt;div style=&quot;padding-top: 0px; padding-right: 2px; padding-left: 2px;&quot;&gt;&lt;strong style=&quot;color: rgb(59, 59, 59); font-family: -apple-system, BlinkMacSystemFont, &amp;quot;Segoe WPC&amp;quot;, &amp;quot;Segoe UI&amp;quot;, system-ui, Ubuntu, &amp;quot;Droid Sans&amp;quot;, sans-serif; text-align: left;&quot;&gt;Cải tiến quy trình&lt;/strong&gt;&lt;/div&gt;" style="shape=step;perimeter=stepPerimeter;fontFamily=Helvetica;fontSize=14;fixedSize=1;size=17;fontStyle=1;strokeWidth=2;spacingTop=0;points=[];fillColor=#e1d5e7;strokeColor=#9673a6;html=1;whiteSpace=wrap;spacing=10;align=center;" vertex="1" parent="l-kLitbtD4qd4CKumxQw-129">
          <mxGeometry x="626" y="30" width="98" height="83" as="geometry" />
        </mxCell>
        <mxCell id="l-kLitbtD4qd4CKumxQw-138" value="Kế toán và thanh toán" style="swimlane;fontStyle=2;childLayout=stackLayout;horizontal=1;startSize=20;horizontalStack=1;resizeParent=1;resizeParentMax=0;resizeLast=0;collapsible=0;marginBottom=0;swimlaneFillColor=none;fontFamily=Helvetica;fontSize=14;points=[];verticalAlign=middle;stackBorder=10;stackSpacing=-10;resizable=1;swimlaneLine=1;flipH=0;flipV=0;glass=0;" vertex="1" parent="1">
          <mxGeometry x="908" y="80" width="646" height="123" as="geometry" />
        </mxCell>
        <mxCell id="l-kLitbtD4qd4CKumxQw-139" value="&lt;div style=&quot;padding-top: 0px; padding-right: 2px; padding-left: 2px;&quot;&gt;&lt;strong style=&quot;color: rgb(59, 59, 59); font-family: -apple-system, BlinkMacSystemFont, &amp;quot;Segoe WPC&amp;quot;, &amp;quot;Segoe UI&amp;quot;, system-ui, Ubuntu, &amp;quot;Droid Sans&amp;quot;, sans-serif; text-align: left;&quot;&gt;Thu thập dữ liệu giao dịch&lt;/strong&gt;&lt;/div&gt;" style="shape=step;perimeter=stepPerimeter;fontFamily=Helvetica;fontSize=14;fixedSize=1;size=17;fontStyle=1;strokeWidth=2;spacingTop=0;points=[];fillColor=#FFFFFF;strokeColor=#000000;html=1;whiteSpace=wrap;spacing=10;align=center;" vertex="1" parent="l-kLitbtD4qd4CKumxQw-138">
          <mxGeometry x="10" y="30" width="98" height="83" as="geometry" />
        </mxCell>
        <mxCell id="l-kLitbtD4qd4CKumxQw-140" value="&lt;div style=&quot;padding-top: 0px; padding-right: 2px; padding-left: 2px;&quot;&gt;&lt;strong style=&quot;color: rgb(59, 59, 59); font-family: -apple-system, BlinkMacSystemFont, &amp;quot;Segoe WPC&amp;quot;, &amp;quot;Segoe UI&amp;quot;, system-ui, Ubuntu, &amp;quot;Droid Sans&amp;quot;, sans-serif; text-align: left;&quot;&gt;Kiểm tra và đối chiếu hóa đơn&lt;/strong&gt;&lt;/div&gt;" style="shape=step;perimeter=stepPerimeter;fontFamily=Helvetica;fontSize=14;fixedSize=1;size=17;fontStyle=1;strokeWidth=2;spacingTop=0;points=[];fillColor=#f5f5f5;strokeColor=#666666;html=1;whiteSpace=wrap;spacing=10;align=center;fontColor=#333333;" vertex="1" parent="l-kLitbtD4qd4CKumxQw-138">
          <mxGeometry x="98" y="30" width="98" height="83" as="geometry" />
        </mxCell>
        <mxCell id="l-kLitbtD4qd4CKumxQw-141" value="&lt;div style=&quot;padding-top: 0px; padding-right: 2px; padding-left: 2px;&quot;&gt;&lt;strong style=&quot;color: rgb(59, 59, 59); font-family: -apple-system, BlinkMacSystemFont, &amp;quot;Segoe WPC&amp;quot;, &amp;quot;Segoe UI&amp;quot;, system-ui, Ubuntu, &amp;quot;Droid Sans&amp;quot;, sans-serif; text-align: left;&quot;&gt;Chuẩn bị đề nghị thanh toán&lt;/strong&gt;&lt;/div&gt;" style="shape=step;perimeter=stepPerimeter;fontFamily=Helvetica;fontSize=14;fixedSize=1;size=17;fontStyle=1;strokeWidth=2;spacingTop=0;points=[];fillColor=#dae8fc;strokeColor=#6c8ebf;html=1;whiteSpace=wrap;spacing=10;align=center;" vertex="1" parent="l-kLitbtD4qd4CKumxQw-138">
          <mxGeometry x="186" y="30" width="98" height="83" as="geometry" />
        </mxCell>
        <mxCell id="l-kLitbtD4qd4CKumxQw-142" value="&lt;div style=&quot;padding-top: 0px; padding-right: 2px; padding-left: 2px;&quot;&gt;&lt;strong style=&quot;color: rgb(59, 59, 59); font-family: -apple-system, BlinkMacSystemFont, &amp;quot;Segoe WPC&amp;quot;, &amp;quot;Segoe UI&amp;quot;, system-ui, Ubuntu, &amp;quot;Droid Sans&amp;quot;, sans-serif; text-align: left;&quot;&gt;Phê&amp;nbsp;&lt;/strong&gt;&lt;/div&gt;&lt;div style=&quot;padding-top: 0px; padding-right: 2px; padding-left: 2px;&quot;&gt;&lt;strong style=&quot;color: rgb(59, 59, 59); font-family: -apple-system, BlinkMacSystemFont, &amp;quot;Segoe WPC&amp;quot;, &amp;quot;Segoe UI&amp;quot;, system-ui, Ubuntu, &amp;quot;Droid Sans&amp;quot;, sans-serif; text-align: left;&quot;&gt;duyệt thanh toán&lt;/strong&gt;&lt;/div&gt;" style="shape=step;perimeter=stepPerimeter;fontFamily=Helvetica;fontSize=14;fixedSize=1;size=17;fontStyle=1;strokeWidth=2;spacingTop=0;points=[];fillColor=#d5e8d4;strokeColor=#82b366;html=1;whiteSpace=wrap;spacing=10;align=center;" vertex="1" parent="l-kLitbtD4qd4CKumxQw-138">
          <mxGeometry x="274" y="30" width="98" height="83" as="geometry" />
        </mxCell>
        <mxCell id="l-kLitbtD4qd4CKumxQw-143" value="&lt;div style=&quot;padding-top: 0px; padding-right: 2px; padding-left: 2px;&quot;&gt;&lt;strong style=&quot;color: rgb(59, 59, 59); font-family: -apple-system, BlinkMacSystemFont, &amp;quot;Segoe WPC&amp;quot;, &amp;quot;Segoe UI&amp;quot;, system-ui, Ubuntu, &amp;quot;Droid Sans&amp;quot;, sans-serif; text-align: left;&quot;&gt;Thực&lt;/strong&gt;&lt;/div&gt;&lt;div style=&quot;padding-top: 0px; padding-right: 2px; padding-left: 2px;&quot;&gt;&lt;strong style=&quot;color: rgb(59, 59, 59); font-family: -apple-system, BlinkMacSystemFont, &amp;quot;Segoe WPC&amp;quot;, &amp;quot;Segoe UI&amp;quot;, system-ui, Ubuntu, &amp;quot;Droid Sans&amp;quot;, sans-serif; text-align: left;&quot;&gt;&amp;nbsp;hiện thanh toán&lt;/strong&gt;&lt;/div&gt;" style="shape=step;perimeter=stepPerimeter;fontFamily=Helvetica;fontSize=14;fixedSize=1;size=17;fontStyle=1;strokeWidth=2;spacingTop=0;points=[];fillColor=#ffe6cc;strokeColor=#d79b00;html=1;whiteSpace=wrap;spacing=10;align=center;" vertex="1" parent="l-kLitbtD4qd4CKumxQw-138">
          <mxGeometry x="362" y="30" width="98" height="83" as="geometry" />
        </mxCell>
        <mxCell id="l-kLitbtD4qd4CKumxQw-144" value="&lt;div style=&quot;padding-top: 0px; padding-right: 2px; padding-left: 2px;&quot;&gt;&lt;strong style=&quot;color: rgb(59, 59, 59); font-family: -apple-system, BlinkMacSystemFont, &amp;quot;Segoe WPC&amp;quot;, &amp;quot;Segoe UI&amp;quot;, system-ui, Ubuntu, &amp;quot;Droid Sans&amp;quot;, sans-serif; text-align: left;&quot;&gt;Ghi nhận kế toán&lt;/strong&gt;&lt;/div&gt;" style="shape=step;perimeter=stepPerimeter;fontFamily=Helvetica;fontSize=14;fixedSize=1;size=17;fontStyle=1;strokeWidth=2;spacingTop=0;points=[];fillColor=#fff2cc;strokeColor=#d6b656;html=1;whiteSpace=wrap;spacing=10;align=center;" vertex="1" parent="l-kLitbtD4qd4CKumxQw-138">
          <mxGeometry x="450" y="30" width="98" height="83" as="geometry" />
        </mxCell>
        <mxCell id="l-kLitbtD4qd4CKumxQw-145" value="&lt;div style=&quot;padding-top: 0px; padding-right: 2px; padding-left: 2px;&quot;&gt;&lt;strong style=&quot;color: rgb(59, 59, 59); font-family: -apple-system, BlinkMacSystemFont, &amp;quot;Segoe WPC&amp;quot;, &amp;quot;Segoe UI&amp;quot;, system-ui, Ubuntu, &amp;quot;Droid Sans&amp;quot;, sans-serif; text-align: left;&quot;&gt;Lập báo cáo tài chính&lt;/strong&gt;&lt;/div&gt;" style="shape=step;perimeter=stepPerimeter;fontFamily=Helvetica;fontSize=14;fixedSize=1;size=17;fontStyle=1;strokeWidth=2;spacingTop=0;points=[];fillColor=#f8cecc;strokeColor=#b85450;html=1;whiteSpace=wrap;spacing=10;align=center;" vertex="1" parent="l-kLitbtD4qd4CKumxQw-138">
          <mxGeometry x="538" y="30" width="98" height="83" as="geometry" />
        </mxCell>
        <mxCell id="l-kLitbtD4qd4CKumxQw-147" value="Quản lý kho phụ tùng và thiết bị" style="swimlane;fontStyle=2;childLayout=stackLayout;horizontal=1;startSize=20;horizontalStack=1;resizeParent=1;resizeParentMax=0;resizeLast=0;collapsible=0;marginBottom=0;swimlaneFillColor=none;fontFamily=Helvetica;fontSize=14;points=[];verticalAlign=middle;stackBorder=10;stackSpacing=-10;resizable=1;swimlaneLine=1;flipH=0;flipV=0;glass=0;" vertex="1" parent="1">
          <mxGeometry x="908" y="229" width="558" height="123" as="geometry" />
        </mxCell>
        <mxCell id="l-kLitbtD4qd4CKumxQw-148" value="&lt;div style=&quot;padding-top: 0px; padding-right: 2px; padding-left: 2px;&quot;&gt;&lt;strong style=&quot;color: rgb(59, 59, 59); font-family: -apple-system, BlinkMacSystemFont, &amp;quot;Segoe WPC&amp;quot;, &amp;quot;Segoe UI&amp;quot;, system-ui, Ubuntu, &amp;quot;Droid Sans&amp;quot;, sans-serif; text-align: left;&quot;&gt;Đánh giá nhu cầu thiết bị&lt;/strong&gt;&lt;/div&gt;" style="shape=step;perimeter=stepPerimeter;fontFamily=Helvetica;fontSize=14;fixedSize=1;size=17;fontStyle=1;strokeWidth=2;spacingTop=0;points=[];fillColor=#FFFFFF;strokeColor=#000000;html=1;whiteSpace=wrap;spacing=10;align=center;" vertex="1" parent="l-kLitbtD4qd4CKumxQw-147">
          <mxGeometry x="10" y="30" width="98" height="83" as="geometry" />
        </mxCell>
        <mxCell id="l-kLitbtD4qd4CKumxQw-149" value="&lt;div style=&quot;padding-top: 0px; padding-right: 2px; padding-left: 2px;&quot;&gt;&lt;strong style=&quot;color: rgb(59, 59, 59); font-family: -apple-system, BlinkMacSystemFont, &amp;quot;Segoe WPC&amp;quot;, &amp;quot;Segoe UI&amp;quot;, system-ui, Ubuntu, &amp;quot;Droid Sans&amp;quot;, sans-serif; text-align: left;&quot;&gt;Kiểm kê kho hiện tại&lt;/strong&gt;&lt;/div&gt;" style="shape=step;perimeter=stepPerimeter;fontFamily=Helvetica;fontSize=14;fixedSize=1;size=17;fontStyle=1;strokeWidth=2;spacingTop=0;points=[];fillColor=#f5f5f5;strokeColor=#666666;html=1;whiteSpace=wrap;spacing=10;align=center;fontColor=#333333;" vertex="1" parent="l-kLitbtD4qd4CKumxQw-147">
          <mxGeometry x="98" y="30" width="98" height="83" as="geometry" />
        </mxCell>
        <mxCell id="l-kLitbtD4qd4CKumxQw-150" value="&lt;div style=&quot;padding-top: 0px; padding-right: 2px; padding-left: 2px;&quot;&gt;&lt;strong style=&quot;color: rgb(59, 59, 59); font-family: -apple-system, BlinkMacSystemFont, &amp;quot;Segoe WPC&amp;quot;, &amp;quot;Segoe UI&amp;quot;, system-ui, Ubuntu, &amp;quot;Droid Sans&amp;quot;, sans-serif; text-align: left;&quot;&gt;Đặt mua phụ tùng và thiết bị&lt;/strong&gt;&lt;/div&gt;" style="shape=step;perimeter=stepPerimeter;fontFamily=Helvetica;fontSize=14;fixedSize=1;size=17;fontStyle=1;strokeWidth=2;spacingTop=0;points=[];fillColor=#dae8fc;strokeColor=#6c8ebf;html=1;whiteSpace=wrap;spacing=10;align=center;" vertex="1" parent="l-kLitbtD4qd4CKumxQw-147">
          <mxGeometry x="186" y="30" width="98" height="83" as="geometry" />
        </mxCell>
        <mxCell id="l-kLitbtD4qd4CKumxQw-151" value="&lt;div style=&quot;padding-top: 0px; padding-right: 2px; padding-left: 2px;&quot;&gt;&lt;strong style=&quot;color: rgb(59, 59, 59); font-family: -apple-system, BlinkMacSystemFont, &amp;quot;Segoe WPC&amp;quot;, &amp;quot;Segoe UI&amp;quot;, system-ui, Ubuntu, &amp;quot;Droid Sans&amp;quot;, sans-serif; text-align: left;&quot;&gt;Kiểm tra chất&lt;/strong&gt;&lt;/div&gt;&lt;div style=&quot;padding-top: 0px; padding-right: 2px; padding-left: 2px;&quot;&gt;&lt;strong style=&quot;color: rgb(59, 59, 59); font-family: -apple-system, BlinkMacSystemFont, &amp;quot;Segoe WPC&amp;quot;, &amp;quot;Segoe UI&amp;quot;, system-ui, Ubuntu, &amp;quot;Droid Sans&amp;quot;, sans-serif; text-align: left;&quot;&gt;&amp;nbsp;lượng hàng nhập&lt;/strong&gt;&lt;/div&gt;" style="shape=step;perimeter=stepPerimeter;fontFamily=Helvetica;fontSize=14;fixedSize=1;size=17;fontStyle=1;strokeWidth=2;spacingTop=0;points=[];fillColor=#d5e8d4;strokeColor=#82b366;html=1;whiteSpace=wrap;spacing=10;align=center;" vertex="1" parent="l-kLitbtD4qd4CKumxQw-147">
          <mxGeometry x="274" y="30" width="98" height="83" as="geometry" />
        </mxCell>
        <mxCell id="l-kLitbtD4qd4CKumxQw-152" value="&lt;div style=&quot;padding-top: 0px; padding-right: 2px; padding-left: 2px;&quot;&gt;&lt;strong style=&quot;color: rgb(59, 59, 59); font-family: -apple-system, BlinkMacSystemFont, &amp;quot;Segoe WPC&amp;quot;, &amp;quot;Segoe UI&amp;quot;, system-ui, Ubuntu, &amp;quot;Droid Sans&amp;quot;, sans-serif; text-align: left;&quot;&gt;Phân phối thiết bị&lt;/strong&gt;&lt;/div&gt;" style="shape=step;perimeter=stepPerimeter;fontFamily=Helvetica;fontSize=14;fixedSize=1;size=17;fontStyle=1;strokeWidth=2;spacingTop=0;points=[];fillColor=#ffe6cc;strokeColor=#d79b00;html=1;whiteSpace=wrap;spacing=10;align=center;" vertex="1" parent="l-kLitbtD4qd4CKumxQw-147">
          <mxGeometry x="362" y="30" width="98" height="83" as="geometry" />
        </mxCell>
        <mxCell id="l-kLitbtD4qd4CKumxQw-153" value="&lt;div style=&quot;padding-top: 0px; padding-right: 2px; padding-left: 2px;&quot;&gt;&lt;strong style=&quot;color: rgb(59, 59, 59); font-family: -apple-system, BlinkMacSystemFont, &amp;quot;Segoe WPC&amp;quot;, &amp;quot;Segoe UI&amp;quot;, system-ui, Ubuntu, &amp;quot;Droid Sans&amp;quot;, sans-serif; text-align: left;&quot;&gt;Cập nhật dữ liệu kho&lt;/strong&gt;&lt;/div&gt;" style="shape=step;perimeter=stepPerimeter;fontFamily=Helvetica;fontSize=14;fixedSize=1;size=17;fontStyle=1;strokeWidth=2;spacingTop=0;points=[];fillColor=#fff2cc;strokeColor=#d6b656;html=1;whiteSpace=wrap;spacing=10;align=center;" vertex="1" parent="l-kLitbtD4qd4CKumxQw-147">
          <mxGeometry x="450" y="30" width="98" height="83" as="geometry" />
        </mxCell>
        <mxCell id="l-kLitbtD4qd4CKumxQw-156" value="Hỗ trợ kỹ thuật và công nghệ" style="swimlane;fontStyle=2;childLayout=stackLayout;horizontal=1;startSize=20;horizontalStack=1;resizeParent=1;resizeParentMax=0;resizeLast=0;collapsible=0;marginBottom=0;swimlaneFillColor=none;fontFamily=Helvetica;fontSize=14;points=[];verticalAlign=middle;stackBorder=10;stackSpacing=-10;resizable=1;swimlaneLine=1;flipH=0;flipV=0;glass=0;" vertex="1" parent="1">
          <mxGeometry x="908" y="374" width="734" height="123" as="geometry" />
        </mxCell>
        <mxCell id="l-kLitbtD4qd4CKumxQw-157" value="&lt;div style=&quot;padding-top: 0px; padding-right: 2px; padding-left: 2px;&quot;&gt;&lt;strong style=&quot;color: rgb(59, 59, 59); font-family: -apple-system, BlinkMacSystemFont, &amp;quot;Segoe WPC&amp;quot;, &amp;quot;Segoe UI&amp;quot;, system-ui, Ubuntu, &amp;quot;Droid Sans&amp;quot;, sans-serif; text-align: left;&quot;&gt;Giám sát hệ thống công nghệ&lt;/strong&gt;&lt;/div&gt;" style="shape=step;perimeter=stepPerimeter;fontFamily=Helvetica;fontSize=14;fixedSize=1;size=17;fontStyle=1;strokeWidth=2;spacingTop=0;points=[];fillColor=#FFFFFF;strokeColor=#000000;html=1;whiteSpace=wrap;spacing=10;align=center;" vertex="1" parent="l-kLitbtD4qd4CKumxQw-156">
          <mxGeometry x="10" y="30" width="98" height="83" as="geometry" />
        </mxCell>
        <mxCell id="l-kLitbtD4qd4CKumxQw-158" value="&lt;div style=&quot;padding-top: 0px; padding-right: 2px; padding-left: 2px;&quot;&gt;&lt;strong style=&quot;color: rgb(59, 59, 59); font-family: -apple-system, BlinkMacSystemFont, &amp;quot;Segoe WPC&amp;quot;, &amp;quot;Segoe UI&amp;quot;, system-ui, Ubuntu, &amp;quot;Droid Sans&amp;quot;, sans-serif; text-align: left;&quot;&gt;Tiếp&lt;/strong&gt;&lt;strong style=&quot;background-color: transparent; color: rgb(59, 59, 59); font-family: -apple-system, BlinkMacSystemFont, &amp;quot;Segoe WPC&amp;quot;, &amp;quot;Segoe UI&amp;quot;, system-ui, Ubuntu, &amp;quot;Droid Sans&amp;quot;, sans-serif; text-align: left;&quot;&gt;&amp;nbsp;nhận báo&amp;nbsp;&lt;/strong&gt;&lt;/div&gt;&lt;div style=&quot;padding-top: 0px; padding-right: 2px; padding-left: 2px;&quot;&gt;&lt;strong style=&quot;background-color: transparent; color: rgb(59, 59, 59); font-family: -apple-system, BlinkMacSystemFont, &amp;quot;Segoe WPC&amp;quot;, &amp;quot;Segoe UI&amp;quot;, system-ui, Ubuntu, &amp;quot;Droid Sans&amp;quot;, sans-serif; text-align: left;&quot;&gt;cáo lỗi&lt;/strong&gt;&lt;/div&gt;" style="shape=step;perimeter=stepPerimeter;fontFamily=Helvetica;fontSize=14;fixedSize=1;size=17;fontStyle=1;strokeWidth=2;spacingTop=0;points=[];fillColor=#f5f5f5;strokeColor=#666666;html=1;whiteSpace=wrap;spacing=10;align=center;fontColor=#333333;" vertex="1" parent="l-kLitbtD4qd4CKumxQw-156">
          <mxGeometry x="98" y="30" width="98" height="83" as="geometry" />
        </mxCell>
        <mxCell id="l-kLitbtD4qd4CKumxQw-159" value="&lt;div style=&quot;padding-top: 0px; padding-right: 2px; padding-left: 2px;&quot;&gt;&lt;strong style=&quot;color: rgb(59, 59, 59); font-family: -apple-system, BlinkMacSystemFont, &amp;quot;Segoe WPC&amp;quot;, &amp;quot;Segoe UI&amp;quot;, system-ui, Ubuntu, &amp;quot;Droid Sans&amp;quot;, sans-serif; text-align: left;&quot;&gt;Phân tích và chẩn đoán vấn đề&lt;/strong&gt;&lt;/div&gt;" style="shape=step;perimeter=stepPerimeter;fontFamily=Helvetica;fontSize=14;fixedSize=1;size=17;fontStyle=1;strokeWidth=2;spacingTop=0;points=[];fillColor=#dae8fc;strokeColor=#6c8ebf;html=1;whiteSpace=wrap;spacing=10;align=center;" vertex="1" parent="l-kLitbtD4qd4CKumxQw-156">
          <mxGeometry x="186" y="30" width="98" height="83" as="geometry" />
        </mxCell>
        <mxCell id="l-kLitbtD4qd4CKumxQw-160" value="&lt;div style=&quot;padding-top: 0px; padding-right: 2px; padding-left: 2px;&quot;&gt;&lt;strong style=&quot;color: rgb(59, 59, 59); font-family: -apple-system, BlinkMacSystemFont, &amp;quot;Segoe WPC&amp;quot;, &amp;quot;Segoe UI&amp;quot;, system-ui, Ubuntu, &amp;quot;Droid Sans&amp;quot;, sans-serif; text-align: left;&quot;&gt;Khắc phục sự cố&lt;/strong&gt;&lt;/div&gt;" style="shape=step;perimeter=stepPerimeter;fontFamily=Helvetica;fontSize=14;fixedSize=1;size=17;fontStyle=1;strokeWidth=2;spacingTop=0;points=[];fillColor=#d5e8d4;strokeColor=#82b366;html=1;whiteSpace=wrap;spacing=10;align=center;" vertex="1" parent="l-kLitbtD4qd4CKumxQw-156">
          <mxGeometry x="274" y="30" width="98" height="83" as="geometry" />
        </mxCell>
        <mxCell id="l-kLitbtD4qd4CKumxQw-161" value="&lt;div style=&quot;padding-top: 0px; padding-right: 2px; padding-left: 2px;&quot;&gt;&lt;strong style=&quot;color: rgb(59, 59, 59); font-family: -apple-system, BlinkMacSystemFont, &amp;quot;Segoe WPC&amp;quot;, &amp;quot;Segoe UI&amp;quot;, system-ui, Ubuntu, &amp;quot;Droid Sans&amp;quot;, sans-serif; text-align: left;&quot;&gt;Kiểm tra sau sửa chữa&lt;/strong&gt;&lt;/div&gt;" style="shape=step;perimeter=stepPerimeter;fontFamily=Helvetica;fontSize=14;fixedSize=1;size=17;fontStyle=1;strokeWidth=2;spacingTop=0;points=[];fillColor=#ffe6cc;strokeColor=#d79b00;html=1;whiteSpace=wrap;spacing=10;align=center;" vertex="1" parent="l-kLitbtD4qd4CKumxQw-156">
          <mxGeometry x="362" y="30" width="98" height="83" as="geometry" />
        </mxCell>
        <mxCell id="l-kLitbtD4qd4CKumxQw-162" value="&lt;div style=&quot;padding-top: 0px; padding-right: 2px; padding-left: 2px;&quot;&gt;&lt;strong style=&quot;color: rgb(59, 59, 59); font-family: -apple-system, BlinkMacSystemFont, &amp;quot;Segoe WPC&amp;quot;, &amp;quot;Segoe UI&amp;quot;, system-ui, Ubuntu, &amp;quot;Droid Sans&amp;quot;, sans-serif; text-align: left;&quot;&gt;Đào tạo nhân viên&lt;/strong&gt;&lt;/div&gt;" style="shape=step;perimeter=stepPerimeter;fontFamily=Helvetica;fontSize=14;fixedSize=1;size=17;fontStyle=1;strokeWidth=2;spacingTop=0;points=[];fillColor=#fff2cc;strokeColor=#d6b656;html=1;whiteSpace=wrap;spacing=10;align=center;" vertex="1" parent="l-kLitbtD4qd4CKumxQw-156">
          <mxGeometry x="450" y="30" width="98" height="83" as="geometry" />
        </mxCell>
        <mxCell id="l-kLitbtD4qd4CKumxQw-163" value="&lt;div style=&quot;padding-top: 0px; padding-right: 2px; padding-left: 2px;&quot;&gt;&lt;strong style=&quot;color: rgb(59, 59, 59); font-family: -apple-system, BlinkMacSystemFont, &amp;quot;Segoe WPC&amp;quot;, &amp;quot;Segoe UI&amp;quot;, system-ui, Ubuntu, &amp;quot;Droid Sans&amp;quot;, sans-serif; text-align: left;&quot;&gt;Bảo trì định kỳ&lt;/strong&gt;&lt;/div&gt;" style="shape=step;perimeter=stepPerimeter;fontFamily=Helvetica;fontSize=14;fixedSize=1;size=17;fontStyle=1;strokeWidth=2;spacingTop=0;points=[];fillColor=#f8cecc;strokeColor=#b85450;html=1;whiteSpace=wrap;spacing=10;align=center;" vertex="1" parent="l-kLitbtD4qd4CKumxQw-156">
          <mxGeometry x="538" y="30" width="98" height="83" as="geometry" />
        </mxCell>
        <mxCell id="l-kLitbtD4qd4CKumxQw-164" value="&lt;div style=&quot;padding-top: 0px; padding-right: 2px; padding-left: 2px;&quot;&gt;&lt;strong style=&quot;color: rgb(59, 59, 59); font-family: -apple-system, BlinkMacSystemFont, &amp;quot;Segoe WPC&amp;quot;, &amp;quot;Segoe UI&amp;quot;, system-ui, Ubuntu, &amp;quot;Droid Sans&amp;quot;, sans-serif; text-align: left;&quot;&gt;Báo cáo&lt;/strong&gt;&lt;/div&gt;&lt;div style=&quot;padding-top: 0px; padding-right: 2px; padding-left: 2px;&quot;&gt;&lt;strong style=&quot;color: rgb(59, 59, 59); font-family: -apple-system, BlinkMacSystemFont, &amp;quot;Segoe WPC&amp;quot;, &amp;quot;Segoe UI&amp;quot;, system-ui, Ubuntu, &amp;quot;Droid Sans&amp;quot;, sans-serif; text-align: left;&quot;&gt;&amp;nbsp;và cải tiến&lt;/strong&gt;&lt;/div&gt;" style="shape=step;perimeter=stepPerimeter;fontFamily=Helvetica;fontSize=14;fixedSize=1;size=17;fontStyle=1;strokeWidth=2;spacingTop=0;points=[];fillColor=#e1d5e7;strokeColor=#9673a6;html=1;whiteSpace=wrap;spacing=10;align=center;" vertex="1" parent="l-kLitbtD4qd4CKumxQw-156">
          <mxGeometry x="626" y="30" width="98" height="83" as="geometry" />
        </mxCell>
      </root>
    </mxGraphModel>
  </diagram>
</mxfile>
